<mxfile host="app.diagrams.net" agent="Mozilla/5.0 (Windows NT 10.0; Win64; x64) AppleWebKit/537.36 (KHTML, like Gecko) Chrome/126.0.0.0 Safari/537.36 Edg/126.0.0.0" version="24.7.5" pages="6">
  <diagram name="Log In" id="13e1069c-82ec-6db2-03f1-153e76fe0fe0">
    <mxGraphModel dx="1042" dy="577" grid="1" gridSize="10" guides="1" tooltips="1" connect="1" arrows="1" fold="1" page="1" pageScale="1" pageWidth="1100" pageHeight="850" background="none" math="0" shadow="0">
      <root>
        <mxCell id="0" />
        <mxCell id="1" parent="0" />
        <mxCell id="F0CH4s_4JCiOfULGihNd-22" value="" style="rounded=0;whiteSpace=wrap;html=1;fillColor=none;strokeColor=#994C00;" parent="1" vertex="1">
          <mxGeometry x="170" y="480" width="470" height="280" as="geometry" />
        </mxCell>
        <mxCell id="F0CH4s_4JCiOfULGihNd-11" value="" style="rounded=0;whiteSpace=wrap;html=1;fillColor=none;strokeColor=#006600;" parent="1" vertex="1">
          <mxGeometry x="60" y="160" width="480" height="190" as="geometry" />
        </mxCell>
        <mxCell id="7baba1c4bc27f4b0-2" value="Program" style="shape=umlLifeline;perimeter=lifelinePerimeter;whiteSpace=wrap;html=1;container=1;collapsible=0;recursiveResize=0;outlineConnect=0;rounded=1;shadow=0;comic=0;labelBackgroundColor=none;strokeWidth=1;fontFamily=Verdana;fontSize=12;align=center;" parent="1" vertex="1">
          <mxGeometry x="240" y="80" width="100" height="710" as="geometry" />
        </mxCell>
        <mxCell id="7baba1c4bc27f4b0-10" value="" style="html=1;points=[];perimeter=orthogonalPerimeter;rounded=0;shadow=0;comic=0;labelBackgroundColor=none;strokeWidth=1;fontFamily=Verdana;fontSize=12;align=center;" parent="7baba1c4bc27f4b0-2" vertex="1">
          <mxGeometry x="45" y="100" width="10" height="580" as="geometry" />
        </mxCell>
        <mxCell id="F0CH4s_4JCiOfULGihNd-28" value="error msg" style="endArrow=classic;html=1;rounded=0;edgeStyle=orthogonalEdgeStyle;verticalAlign=bottom;exitX=1.128;exitY=0.149;exitDx=0;exitDy=0;exitPerimeter=0;entryX=0.84;entryY=0.344;entryDx=0;entryDy=0;entryPerimeter=0;" parent="7baba1c4bc27f4b0-2" edge="1">
          <mxGeometry width="50" height="50" relative="1" as="geometry">
            <mxPoint x="58" y="470" as="sourcePoint" />
            <mxPoint x="55" y="509" as="targetPoint" />
            <Array as="points">
              <mxPoint x="108" y="470" />
              <mxPoint x="108" y="509" />
            </Array>
          </mxGeometry>
        </mxCell>
        <mxCell id="F0CH4s_4JCiOfULGihNd-29" value="adminMenu()" style="endArrow=classic;html=1;rounded=0;edgeStyle=orthogonalEdgeStyle;verticalAlign=bottom;exitX=1.128;exitY=0.149;exitDx=0;exitDy=0;exitPerimeter=0;entryX=0.84;entryY=0.344;entryDx=0;entryDy=0;entryPerimeter=0;" parent="7baba1c4bc27f4b0-2" edge="1">
          <mxGeometry width="50" height="50" relative="1" as="geometry">
            <mxPoint x="58" y="550" as="sourcePoint" />
            <mxPoint x="55" y="589" as="targetPoint" />
            <Array as="points">
              <mxPoint x="108" y="550" />
              <mxPoint x="108" y="589" />
            </Array>
          </mxGeometry>
        </mxCell>
        <mxCell id="F0CH4s_4JCiOfULGihNd-32" value="[result user = null]" style="text;html=1;align=center;verticalAlign=middle;resizable=0;points=[];autosize=1;strokeColor=none;fillColor=none;" parent="7baba1c4bc27f4b0-2" vertex="1">
          <mxGeometry x="-75" y="470" width="120" height="30" as="geometry" />
        </mxCell>
        <mxCell id="7baba1c4bc27f4b0-3" value=":User" style="shape=umlLifeline;perimeter=lifelinePerimeter;whiteSpace=wrap;html=1;container=1;collapsible=0;recursiveResize=0;outlineConnect=0;rounded=1;shadow=0;comic=0;labelBackgroundColor=none;strokeWidth=1;fontFamily=Verdana;fontSize=12;align=center;" parent="1" vertex="1">
          <mxGeometry x="400" y="80" width="100" height="700" as="geometry" />
        </mxCell>
        <mxCell id="7baba1c4bc27f4b0-13" value="" style="html=1;points=[];perimeter=orthogonalPerimeter;rounded=0;shadow=0;comic=0;labelBackgroundColor=none;strokeWidth=1;fontFamily=Verdana;fontSize=12;align=center;" parent="7baba1c4bc27f4b0-3" vertex="1">
          <mxGeometry x="45" y="120" width="10" height="200" as="geometry" />
        </mxCell>
        <mxCell id="F0CH4s_4JCiOfULGihNd-8" value="" style="endArrow=classic;html=1;rounded=0;exitX=1.14;exitY=0.096;exitDx=0;exitDy=0;exitPerimeter=0;entryX=-0.14;entryY=0.098;entryDx=0;entryDy=0;entryPerimeter=0;" parent="7baba1c4bc27f4b0-3" target="7baba1c4bc27f4b0-13" edge="1">
          <mxGeometry width="50" height="50" relative="1" as="geometry">
            <mxPoint x="-104.99999999999989" y="141.27999999999997" as="sourcePoint" />
            <mxPoint x="40" y="140" as="targetPoint" />
          </mxGeometry>
        </mxCell>
        <mxCell id="F0CH4s_4JCiOfULGihNd-9" value="Login()" style="endArrow=classic;html=1;rounded=0;edgeStyle=orthogonalEdgeStyle;verticalAlign=bottom;exitX=1.128;exitY=0.149;exitDx=0;exitDy=0;exitPerimeter=0;entryX=0.84;entryY=0.344;entryDx=0;entryDy=0;entryPerimeter=0;" parent="7baba1c4bc27f4b0-3" source="7baba1c4bc27f4b0-13" target="7baba1c4bc27f4b0-13" edge="1">
          <mxGeometry width="50" height="50" relative="1" as="geometry">
            <mxPoint x="60" y="150" as="sourcePoint" />
            <mxPoint x="45" y="187.6" as="targetPoint" />
            <Array as="points">
              <mxPoint x="106" y="150" />
              <mxPoint x="106" y="189" />
            </Array>
          </mxGeometry>
        </mxCell>
        <mxCell id="F0CH4s_4JCiOfULGihNd-15" value="" style="html=1;points=[];perimeter=orthogonalPerimeter;rounded=0;shadow=0;comic=0;labelBackgroundColor=none;strokeWidth=1;fontFamily=Verdana;fontSize=12;align=center;" parent="7baba1c4bc27f4b0-3" vertex="1">
          <mxGeometry x="45" y="350" width="10" height="90" as="geometry" />
        </mxCell>
        <mxCell id="F0CH4s_4JCiOfULGihNd-1" value="Guest" style="shape=umlActor;verticalLabelPosition=bottom;verticalAlign=top;html=1;outlineConnect=0;" parent="1" vertex="1">
          <mxGeometry x="60" y="40" width="40" height="80" as="geometry" />
        </mxCell>
        <mxCell id="F0CH4s_4JCiOfULGihNd-3" value="" style="endArrow=none;dashed=1;html=1;rounded=0;" parent="1" target="F0CH4s_4JCiOfULGihNd-1" edge="1">
          <mxGeometry width="50" height="50" relative="1" as="geometry">
            <mxPoint x="80" y="780" as="sourcePoint" />
            <mxPoint x="490" y="270" as="targetPoint" />
          </mxGeometry>
        </mxCell>
        <mxCell id="F0CH4s_4JCiOfULGihNd-4" value="DB" style="shape=cylinder3;whiteSpace=wrap;html=1;boundedLbl=1;backgroundOutline=1;size=15;" parent="1" vertex="1">
          <mxGeometry x="590" y="50" width="60" height="70" as="geometry" />
        </mxCell>
        <mxCell id="F0CH4s_4JCiOfULGihNd-5" value="" style="endArrow=none;dashed=1;html=1;rounded=0;entryX=0.5;entryY=1;entryDx=0;entryDy=0;entryPerimeter=0;" parent="1" source="F0CH4s_4JCiOfULGihNd-17" target="F0CH4s_4JCiOfULGihNd-4" edge="1">
          <mxGeometry width="50" height="50" relative="1" as="geometry">
            <mxPoint x="620" y="650" as="sourcePoint" />
            <mxPoint x="660" y="290" as="targetPoint" />
          </mxGeometry>
        </mxCell>
        <mxCell id="F0CH4s_4JCiOfULGihNd-6" value="Input Username/Passwords" style="endArrow=classic;html=1;rounded=0;verticalAlign=bottom;" parent="1" target="7baba1c4bc27f4b0-2" edge="1">
          <mxGeometry width="50" height="50" relative="1" as="geometry">
            <mxPoint x="80" y="200" as="sourcePoint" />
            <mxPoint x="300" y="190" as="targetPoint" />
          </mxGeometry>
        </mxCell>
        <mxCell id="F0CH4s_4JCiOfULGihNd-10" value="err msg: Invalid Input" style="endArrow=classic;html=1;rounded=0;exitX=-0.088;exitY=0.454;exitDx=0;exitDy=0;exitPerimeter=0;verticalAlign=bottom;entryX=1.1;entryY=0.197;entryDx=0;entryDy=0;entryPerimeter=0;" parent="1" source="7baba1c4bc27f4b0-13" target="7baba1c4bc27f4b0-10" edge="1">
          <mxGeometry width="50" height="50" relative="1" as="geometry">
            <mxPoint x="430" y="291" as="sourcePoint" />
            <mxPoint x="300" y="310" as="targetPoint" />
          </mxGeometry>
        </mxCell>
        <mxCell id="F0CH4s_4JCiOfULGihNd-12" value="Loop" style="rounded=0;whiteSpace=wrap;html=1;fillColor=#99FF99;strokeColor=#006600;" parent="1" vertex="1">
          <mxGeometry x="60" y="310" width="80" height="40" as="geometry" />
        </mxCell>
        <mxCell id="F0CH4s_4JCiOfULGihNd-13" value="[Invalid Input]" style="text;html=1;align=center;verticalAlign=middle;resizable=0;points=[];autosize=1;strokeColor=none;fillColor=none;" parent="1" vertex="1">
          <mxGeometry x="120" y="260" width="90" height="30" as="geometry" />
        </mxCell>
        <mxCell id="F0CH4s_4JCiOfULGihNd-16" value="new User()" style="endArrow=classic;html=1;rounded=0;verticalAlign=bottom;entryX=0.053;entryY=0.032;entryDx=0;entryDy=0;entryPerimeter=0;" parent="1" source="7baba1c4bc27f4b0-2" target="F0CH4s_4JCiOfULGihNd-15" edge="1">
          <mxGeometry width="50" height="50" relative="1" as="geometry">
            <mxPoint x="300" y="430" as="sourcePoint" />
            <mxPoint x="445" y="430" as="targetPoint" />
          </mxGeometry>
        </mxCell>
        <mxCell id="F0CH4s_4JCiOfULGihNd-18" value="" style="endArrow=none;dashed=1;html=1;rounded=0;entryX=0.5;entryY=1;entryDx=0;entryDy=0;entryPerimeter=0;" parent="1" target="F0CH4s_4JCiOfULGihNd-17" edge="1">
          <mxGeometry width="50" height="50" relative="1" as="geometry">
            <mxPoint x="620" y="780" as="sourcePoint" />
            <mxPoint x="620" y="120" as="targetPoint" />
          </mxGeometry>
        </mxCell>
        <mxCell id="F0CH4s_4JCiOfULGihNd-17" value="" style="html=1;points=[];perimeter=orthogonalPerimeter;rounded=0;shadow=0;comic=0;labelBackgroundColor=none;strokeWidth=1;fontFamily=Verdana;fontSize=12;align=center;" parent="1" vertex="1">
          <mxGeometry x="615" y="440" width="10" height="60" as="geometry" />
        </mxCell>
        <mxCell id="F0CH4s_4JCiOfULGihNd-19" value="Login()" style="endArrow=classic;html=1;rounded=0;entryX=-0.367;entryY=0.09;entryDx=0;entryDy=0;entryPerimeter=0;exitX=0.5;exitY=0.193;exitDx=0;exitDy=0;exitPerimeter=0;verticalAlign=bottom;" parent="1" edge="1">
          <mxGeometry width="50" height="50" relative="1" as="geometry">
            <mxPoint x="453.67" y="450.0800000000001" as="sourcePoint" />
            <mxPoint x="614.9999999999999" y="450.00000000000006" as="targetPoint" />
          </mxGeometry>
        </mxCell>
        <mxCell id="F0CH4s_4JCiOfULGihNd-21" value="" style="endArrow=classic;html=1;rounded=0;exitX=0;exitY=0.65;exitDx=0;exitDy=0;exitPerimeter=0;entryX=1.233;entryY=0.614;entryDx=0;entryDy=0;entryPerimeter=0;" parent="1" edge="1">
          <mxGeometry width="50" height="50" relative="1" as="geometry">
            <mxPoint x="615" y="500" as="sourcePoint" />
            <mxPoint x="457.3299999999997" y="500.24" as="targetPoint" />
          </mxGeometry>
        </mxCell>
        <mxCell id="F0CH4s_4JCiOfULGihNd-23" value="Alt" style="rounded=0;whiteSpace=wrap;html=1;fillColor=#FF8000;strokeColor=none;" parent="1" vertex="1">
          <mxGeometry x="170" y="480" width="60" height="20" as="geometry" />
        </mxCell>
        <mxCell id="F0CH4s_4JCiOfULGihNd-25" value="" style="endArrow=none;dashed=1;html=1;rounded=0;exitX=0.004;exitY=0.408;exitDx=0;exitDy=0;exitPerimeter=0;entryX=0.997;entryY=0.434;entryDx=0;entryDy=0;entryPerimeter=0;" parent="1" target="F0CH4s_4JCiOfULGihNd-22" edge="1">
          <mxGeometry width="50" height="50" relative="1" as="geometry">
            <mxPoint x="171.4100000000001" y="604.2" as="sourcePoint" />
            <mxPoint x="639.9999999999998" y="600.0000000000002" as="targetPoint" />
          </mxGeometry>
        </mxCell>
        <mxCell id="F0CH4s_4JCiOfULGihNd-26" value="" style="endArrow=classic;html=1;rounded=0;exitX=0;exitY=0.65;exitDx=0;exitDy=0;exitPerimeter=0;entryX=1.233;entryY=0.614;entryDx=0;entryDy=0;entryPerimeter=0;" parent="1" edge="1">
          <mxGeometry width="50" height="50" relative="1" as="geometry">
            <mxPoint x="447.66999999999996" y="520" as="sourcePoint" />
            <mxPoint x="289.99999999999966" y="520.24" as="targetPoint" />
          </mxGeometry>
        </mxCell>
        <mxCell id="F0CH4s_4JCiOfULGihNd-27" value="" style="endArrow=none;dashed=1;html=1;rounded=0;exitX=0.004;exitY=0.408;exitDx=0;exitDy=0;exitPerimeter=0;entryX=0.997;entryY=0.72;entryDx=0;entryDy=0;entryPerimeter=0;" parent="1" target="F0CH4s_4JCiOfULGihNd-22" edge="1">
          <mxGeometry width="50" height="50" relative="1" as="geometry">
            <mxPoint x="170" y="683" as="sourcePoint" />
            <mxPoint x="638" y="680" as="targetPoint" />
          </mxGeometry>
        </mxCell>
        <mxCell id="F0CH4s_4JCiOfULGihNd-31" value="userMenu()" style="endArrow=classic;html=1;rounded=0;edgeStyle=orthogonalEdgeStyle;verticalAlign=bottom;exitX=0.948;exitY=0.895;exitDx=0;exitDy=0;exitPerimeter=0;entryX=0.84;entryY=0.344;entryDx=0;entryDy=0;entryPerimeter=0;" parent="1" source="7baba1c4bc27f4b0-10" edge="1">
          <mxGeometry width="50" height="50" relative="1" as="geometry">
            <mxPoint x="303" y="700" as="sourcePoint" />
            <mxPoint x="300" y="739" as="targetPoint" />
            <Array as="points">
              <mxPoint x="353" y="699" />
              <mxPoint x="353" y="739" />
            </Array>
          </mxGeometry>
        </mxCell>
        <mxCell id="F0CH4s_4JCiOfULGihNd-33" value="[guest is admin]" style="text;html=1;align=center;verticalAlign=middle;resizable=0;points=[];autosize=1;strokeColor=none;fillColor=none;" parent="1" vertex="1">
          <mxGeometry x="175" y="630" width="110" height="30" as="geometry" />
        </mxCell>
        <mxCell id="F0CH4s_4JCiOfULGihNd-34" value="[guest is user]" style="text;html=1;align=center;verticalAlign=middle;resizable=0;points=[];autosize=1;strokeColor=none;fillColor=none;" parent="1" vertex="1">
          <mxGeometry x="180" y="710" width="100" height="30" as="geometry" />
        </mxCell>
        <mxCell id="Bq0e3WAbnTrYZdv39ahH-2" value="" style="rounded=0;whiteSpace=wrap;html=1;fillColor=none;" parent="1" vertex="1">
          <mxGeometry width="670" height="780" as="geometry" />
        </mxCell>
        <mxCell id="Bq0e3WAbnTrYZdv39ahH-3" value="Sd01-Log In" style="rounded=1;whiteSpace=wrap;html=1;" parent="1" vertex="1">
          <mxGeometry width="80" height="30" as="geometry" />
        </mxCell>
      </root>
    </mxGraphModel>
  </diagram>
  <diagram name="Sign in" id="sj93D10sHO3ctuI7SsbO">
    <mxGraphModel dx="1489" dy="824" grid="1" gridSize="10" guides="1" tooltips="1" connect="1" arrows="1" fold="1" page="1" pageScale="1" pageWidth="1100" pageHeight="850" background="none" math="0" shadow="0">
      <root>
        <mxCell id="Mu2sOL8I9shYQxzjJvbA-0" />
        <mxCell id="Mu2sOL8I9shYQxzjJvbA-1" parent="Mu2sOL8I9shYQxzjJvbA-0" />
        <mxCell id="Mu2sOL8I9shYQxzjJvbA-2" value="" style="rounded=0;whiteSpace=wrap;html=1;fillColor=none;strokeColor=#994C00;" vertex="1" parent="Mu2sOL8I9shYQxzjJvbA-1">
          <mxGeometry x="170" y="480" width="470" height="210" as="geometry" />
        </mxCell>
        <mxCell id="Mu2sOL8I9shYQxzjJvbA-3" value="" style="rounded=0;whiteSpace=wrap;html=1;fillColor=none;strokeColor=#006600;" vertex="1" parent="Mu2sOL8I9shYQxzjJvbA-1">
          <mxGeometry x="60" y="160" width="480" height="190" as="geometry" />
        </mxCell>
        <mxCell id="Mu2sOL8I9shYQxzjJvbA-4" value="Program" style="shape=umlLifeline;perimeter=lifelinePerimeter;whiteSpace=wrap;html=1;container=1;collapsible=0;recursiveResize=0;outlineConnect=0;rounded=1;shadow=0;comic=0;labelBackgroundColor=none;strokeWidth=1;fontFamily=Verdana;fontSize=12;align=center;" vertex="1" parent="Mu2sOL8I9shYQxzjJvbA-1">
          <mxGeometry x="240" y="80" width="100" height="710" as="geometry" />
        </mxCell>
        <mxCell id="Mu2sOL8I9shYQxzjJvbA-5" value="" style="html=1;points=[];perimeter=orthogonalPerimeter;rounded=0;shadow=0;comic=0;labelBackgroundColor=none;strokeWidth=1;fontFamily=Verdana;fontSize=12;align=center;" vertex="1" parent="Mu2sOL8I9shYQxzjJvbA-4">
          <mxGeometry x="45" y="100" width="10" height="580" as="geometry" />
        </mxCell>
        <mxCell id="Mu2sOL8I9shYQxzjJvbA-6" value="error msg:&lt;div&gt;user exist&lt;/div&gt;" style="endArrow=classic;html=1;rounded=0;edgeStyle=orthogonalEdgeStyle;verticalAlign=bottom;exitX=1.128;exitY=0.149;exitDx=0;exitDy=0;exitPerimeter=0;entryX=0.84;entryY=0.344;entryDx=0;entryDy=0;entryPerimeter=0;" edge="1" parent="Mu2sOL8I9shYQxzjJvbA-4">
          <mxGeometry width="50" height="50" relative="1" as="geometry">
            <mxPoint x="58" y="470" as="sourcePoint" />
            <mxPoint x="55" y="509" as="targetPoint" />
            <Array as="points">
              <mxPoint x="108" y="470" />
              <mxPoint x="108" y="509" />
            </Array>
          </mxGeometry>
        </mxCell>
        <mxCell id="Mu2sOL8I9shYQxzjJvbA-8" value="[result not null]" style="text;html=1;align=center;verticalAlign=middle;resizable=0;points=[];autosize=1;strokeColor=none;fillColor=none;" vertex="1" parent="Mu2sOL8I9shYQxzjJvbA-4">
          <mxGeometry x="-65" y="470" width="100" height="30" as="geometry" />
        </mxCell>
        <mxCell id="Mu2sOL8I9shYQxzjJvbA-9" value=":User" style="shape=umlLifeline;perimeter=lifelinePerimeter;whiteSpace=wrap;html=1;container=1;collapsible=0;recursiveResize=0;outlineConnect=0;rounded=1;shadow=0;comic=0;labelBackgroundColor=none;strokeWidth=1;fontFamily=Verdana;fontSize=12;align=center;" vertex="1" parent="Mu2sOL8I9shYQxzjJvbA-1">
          <mxGeometry x="400" y="80" width="100" height="700" as="geometry" />
        </mxCell>
        <mxCell id="Mu2sOL8I9shYQxzjJvbA-10" value="" style="html=1;points=[];perimeter=orthogonalPerimeter;rounded=0;shadow=0;comic=0;labelBackgroundColor=none;strokeWidth=1;fontFamily=Verdana;fontSize=12;align=center;" vertex="1" parent="Mu2sOL8I9shYQxzjJvbA-9">
          <mxGeometry x="45" y="120" width="10" height="200" as="geometry" />
        </mxCell>
        <mxCell id="Mu2sOL8I9shYQxzjJvbA-11" value="" style="endArrow=classic;html=1;rounded=0;exitX=1.14;exitY=0.096;exitDx=0;exitDy=0;exitPerimeter=0;entryX=-0.14;entryY=0.098;entryDx=0;entryDy=0;entryPerimeter=0;" edge="1" parent="Mu2sOL8I9shYQxzjJvbA-9" target="Mu2sOL8I9shYQxzjJvbA-10">
          <mxGeometry width="50" height="50" relative="1" as="geometry">
            <mxPoint x="-104.99999999999989" y="141.27999999999997" as="sourcePoint" />
            <mxPoint x="40" y="140" as="targetPoint" />
          </mxGeometry>
        </mxCell>
        <mxCell id="Mu2sOL8I9shYQxzjJvbA-12" value="SignIn()" style="endArrow=classic;html=1;rounded=0;edgeStyle=orthogonalEdgeStyle;verticalAlign=bottom;exitX=1.128;exitY=0.149;exitDx=0;exitDy=0;exitPerimeter=0;entryX=0.84;entryY=0.344;entryDx=0;entryDy=0;entryPerimeter=0;" edge="1" parent="Mu2sOL8I9shYQxzjJvbA-9" source="Mu2sOL8I9shYQxzjJvbA-10" target="Mu2sOL8I9shYQxzjJvbA-10">
          <mxGeometry width="50" height="50" relative="1" as="geometry">
            <mxPoint x="60" y="150" as="sourcePoint" />
            <mxPoint x="45" y="187.6" as="targetPoint" />
            <Array as="points">
              <mxPoint x="106" y="150" />
              <mxPoint x="106" y="189" />
            </Array>
          </mxGeometry>
        </mxCell>
        <mxCell id="Mu2sOL8I9shYQxzjJvbA-13" value="" style="html=1;points=[];perimeter=orthogonalPerimeter;rounded=0;shadow=0;comic=0;labelBackgroundColor=none;strokeWidth=1;fontFamily=Verdana;fontSize=12;align=center;" vertex="1" parent="Mu2sOL8I9shYQxzjJvbA-9">
          <mxGeometry x="45" y="350" width="10" height="90" as="geometry" />
        </mxCell>
        <mxCell id="WEgrKeT8IjtTW5Z9Hypq-1" value="" style="html=1;points=[];perimeter=orthogonalPerimeter;rounded=0;shadow=0;comic=0;labelBackgroundColor=none;strokeWidth=1;fontFamily=Verdana;fontSize=12;align=center;" vertex="1" parent="Mu2sOL8I9shYQxzjJvbA-9">
          <mxGeometry x="45" y="530" width="10" height="60" as="geometry" />
        </mxCell>
        <mxCell id="Mu2sOL8I9shYQxzjJvbA-14" value="Guest" style="shape=umlActor;verticalLabelPosition=bottom;verticalAlign=top;html=1;outlineConnect=0;" vertex="1" parent="Mu2sOL8I9shYQxzjJvbA-1">
          <mxGeometry x="60" y="40" width="40" height="80" as="geometry" />
        </mxCell>
        <mxCell id="Mu2sOL8I9shYQxzjJvbA-15" value="" style="endArrow=none;dashed=1;html=1;rounded=0;" edge="1" parent="Mu2sOL8I9shYQxzjJvbA-1" target="Mu2sOL8I9shYQxzjJvbA-14">
          <mxGeometry width="50" height="50" relative="1" as="geometry">
            <mxPoint x="80" y="780" as="sourcePoint" />
            <mxPoint x="490" y="270" as="targetPoint" />
          </mxGeometry>
        </mxCell>
        <mxCell id="Mu2sOL8I9shYQxzjJvbA-16" value="DB" style="shape=cylinder3;whiteSpace=wrap;html=1;boundedLbl=1;backgroundOutline=1;size=15;" vertex="1" parent="Mu2sOL8I9shYQxzjJvbA-1">
          <mxGeometry x="590" y="50" width="60" height="70" as="geometry" />
        </mxCell>
        <mxCell id="Mu2sOL8I9shYQxzjJvbA-17" value="" style="endArrow=none;dashed=1;html=1;rounded=0;entryX=0.5;entryY=1;entryDx=0;entryDy=0;entryPerimeter=0;" edge="1" parent="Mu2sOL8I9shYQxzjJvbA-1" source="Mu2sOL8I9shYQxzjJvbA-24" target="Mu2sOL8I9shYQxzjJvbA-16">
          <mxGeometry width="50" height="50" relative="1" as="geometry">
            <mxPoint x="620" y="650" as="sourcePoint" />
            <mxPoint x="660" y="290" as="targetPoint" />
          </mxGeometry>
        </mxCell>
        <mxCell id="Mu2sOL8I9shYQxzjJvbA-18" value="Input User Info" style="endArrow=classic;html=1;rounded=0;verticalAlign=bottom;" edge="1" parent="Mu2sOL8I9shYQxzjJvbA-1" target="Mu2sOL8I9shYQxzjJvbA-4">
          <mxGeometry width="50" height="50" relative="1" as="geometry">
            <mxPoint x="80" y="200" as="sourcePoint" />
            <mxPoint x="300" y="190" as="targetPoint" />
          </mxGeometry>
        </mxCell>
        <mxCell id="Mu2sOL8I9shYQxzjJvbA-19" value="err msg: Invalid Input" style="endArrow=classic;html=1;rounded=0;exitX=-0.088;exitY=0.454;exitDx=0;exitDy=0;exitPerimeter=0;verticalAlign=bottom;entryX=1.1;entryY=0.197;entryDx=0;entryDy=0;entryPerimeter=0;" edge="1" parent="Mu2sOL8I9shYQxzjJvbA-1" source="Mu2sOL8I9shYQxzjJvbA-10" target="Mu2sOL8I9shYQxzjJvbA-5">
          <mxGeometry width="50" height="50" relative="1" as="geometry">
            <mxPoint x="430" y="291" as="sourcePoint" />
            <mxPoint x="300" y="310" as="targetPoint" />
          </mxGeometry>
        </mxCell>
        <mxCell id="Mu2sOL8I9shYQxzjJvbA-20" value="Loop" style="rounded=0;whiteSpace=wrap;html=1;fillColor=#99FF99;strokeColor=#006600;" vertex="1" parent="Mu2sOL8I9shYQxzjJvbA-1">
          <mxGeometry x="60" y="310" width="80" height="40" as="geometry" />
        </mxCell>
        <mxCell id="Mu2sOL8I9shYQxzjJvbA-21" value="[Invalid Input]" style="text;html=1;align=center;verticalAlign=middle;resizable=0;points=[];autosize=1;strokeColor=none;fillColor=none;" vertex="1" parent="Mu2sOL8I9shYQxzjJvbA-1">
          <mxGeometry x="120" y="260" width="90" height="30" as="geometry" />
        </mxCell>
        <mxCell id="Mu2sOL8I9shYQxzjJvbA-22" value="new User()" style="endArrow=classic;html=1;rounded=0;verticalAlign=bottom;entryX=0.053;entryY=0.032;entryDx=0;entryDy=0;entryPerimeter=0;" edge="1" parent="Mu2sOL8I9shYQxzjJvbA-1" source="Mu2sOL8I9shYQxzjJvbA-4" target="Mu2sOL8I9shYQxzjJvbA-13">
          <mxGeometry width="50" height="50" relative="1" as="geometry">
            <mxPoint x="300" y="430" as="sourcePoint" />
            <mxPoint x="445" y="430" as="targetPoint" />
          </mxGeometry>
        </mxCell>
        <mxCell id="Mu2sOL8I9shYQxzjJvbA-23" value="" style="endArrow=none;dashed=1;html=1;rounded=0;entryX=0.5;entryY=1;entryDx=0;entryDy=0;entryPerimeter=0;" edge="1" parent="Mu2sOL8I9shYQxzjJvbA-1" target="Mu2sOL8I9shYQxzjJvbA-24" source="WEgrKeT8IjtTW5Z9Hypq-3">
          <mxGeometry width="50" height="50" relative="1" as="geometry">
            <mxPoint x="620" y="780" as="sourcePoint" />
            <mxPoint x="620" y="120" as="targetPoint" />
          </mxGeometry>
        </mxCell>
        <mxCell id="Mu2sOL8I9shYQxzjJvbA-24" value="" style="html=1;points=[];perimeter=orthogonalPerimeter;rounded=0;shadow=0;comic=0;labelBackgroundColor=none;strokeWidth=1;fontFamily=Verdana;fontSize=12;align=center;" vertex="1" parent="Mu2sOL8I9shYQxzjJvbA-1">
          <mxGeometry x="615" y="440" width="10" height="60" as="geometry" />
        </mxCell>
        <mxCell id="Mu2sOL8I9shYQxzjJvbA-25" value="SignIn()" style="endArrow=classic;html=1;rounded=0;entryX=-0.367;entryY=0.09;entryDx=0;entryDy=0;entryPerimeter=0;exitX=0.5;exitY=0.193;exitDx=0;exitDy=0;exitPerimeter=0;verticalAlign=bottom;" edge="1" parent="Mu2sOL8I9shYQxzjJvbA-1">
          <mxGeometry width="50" height="50" relative="1" as="geometry">
            <mxPoint x="453.67" y="450.0800000000001" as="sourcePoint" />
            <mxPoint x="614.9999999999999" y="450.00000000000006" as="targetPoint" />
          </mxGeometry>
        </mxCell>
        <mxCell id="Mu2sOL8I9shYQxzjJvbA-26" value="" style="endArrow=classic;html=1;rounded=0;exitX=0;exitY=0.65;exitDx=0;exitDy=0;exitPerimeter=0;entryX=1.233;entryY=0.614;entryDx=0;entryDy=0;entryPerimeter=0;" edge="1" parent="Mu2sOL8I9shYQxzjJvbA-1">
          <mxGeometry width="50" height="50" relative="1" as="geometry">
            <mxPoint x="615" y="500" as="sourcePoint" />
            <mxPoint x="457.3299999999997" y="500.24" as="targetPoint" />
          </mxGeometry>
        </mxCell>
        <mxCell id="Mu2sOL8I9shYQxzjJvbA-27" value="Alt" style="rounded=0;whiteSpace=wrap;html=1;fillColor=#FF8000;strokeColor=none;" vertex="1" parent="Mu2sOL8I9shYQxzjJvbA-1">
          <mxGeometry x="170" y="480" width="60" height="20" as="geometry" />
        </mxCell>
        <mxCell id="Mu2sOL8I9shYQxzjJvbA-28" value="" style="endArrow=none;dashed=1;html=1;rounded=0;exitX=0.004;exitY=0.408;exitDx=0;exitDy=0;exitPerimeter=0;entryX=0.999;entryY=0.581;entryDx=0;entryDy=0;entryPerimeter=0;" edge="1" parent="Mu2sOL8I9shYQxzjJvbA-1" target="Mu2sOL8I9shYQxzjJvbA-2">
          <mxGeometry width="50" height="50" relative="1" as="geometry">
            <mxPoint x="171.4100000000001" y="604.2" as="sourcePoint" />
            <mxPoint x="639.9999999999998" y="600.0000000000002" as="targetPoint" />
          </mxGeometry>
        </mxCell>
        <mxCell id="Mu2sOL8I9shYQxzjJvbA-29" value="" style="endArrow=classic;html=1;rounded=0;exitX=0;exitY=0.65;exitDx=0;exitDy=0;exitPerimeter=0;entryX=1.233;entryY=0.614;entryDx=0;entryDy=0;entryPerimeter=0;" edge="1" parent="Mu2sOL8I9shYQxzjJvbA-1">
          <mxGeometry width="50" height="50" relative="1" as="geometry">
            <mxPoint x="447.66999999999996" y="520" as="sourcePoint" />
            <mxPoint x="289.99999999999966" y="520.24" as="targetPoint" />
          </mxGeometry>
        </mxCell>
        <mxCell id="Mu2sOL8I9shYQxzjJvbA-32" value="[result null]" style="text;html=1;align=center;verticalAlign=middle;resizable=0;points=[];autosize=1;strokeColor=none;fillColor=none;" vertex="1" parent="Mu2sOL8I9shYQxzjJvbA-1">
          <mxGeometry x="190" y="630" width="80" height="30" as="geometry" />
        </mxCell>
        <mxCell id="WEgrKeT8IjtTW5Z9Hypq-4" value="" style="endArrow=none;dashed=1;html=1;rounded=0;entryX=0.5;entryY=1;entryDx=0;entryDy=0;entryPerimeter=0;" edge="1" parent="Mu2sOL8I9shYQxzjJvbA-1" target="WEgrKeT8IjtTW5Z9Hypq-3">
          <mxGeometry width="50" height="50" relative="1" as="geometry">
            <mxPoint x="620" y="780" as="sourcePoint" />
            <mxPoint x="620" y="500" as="targetPoint" />
          </mxGeometry>
        </mxCell>
        <mxCell id="WEgrKeT8IjtTW5Z9Hypq-3" value="" style="html=1;points=[];perimeter=orthogonalPerimeter;rounded=0;shadow=0;comic=0;labelBackgroundColor=none;strokeWidth=1;fontFamily=Verdana;fontSize=12;align=center;" vertex="1" parent="Mu2sOL8I9shYQxzjJvbA-1">
          <mxGeometry x="615" y="620" width="10" height="40" as="geometry" />
        </mxCell>
        <mxCell id="WEgrKeT8IjtTW5Z9Hypq-2" value="userSave()" style="endArrow=classic;html=1;rounded=0;entryX=-0.052;entryY=0.242;entryDx=0;entryDy=0;entryPerimeter=0;verticalAlign=bottom;" edge="1" parent="Mu2sOL8I9shYQxzjJvbA-1" target="WEgrKeT8IjtTW5Z9Hypq-3">
          <mxGeometry width="50" height="50" relative="1" as="geometry">
            <mxPoint x="455" y="630" as="sourcePoint" />
            <mxPoint x="590" y="630" as="targetPoint" />
          </mxGeometry>
        </mxCell>
        <mxCell id="pfdg3GkmwepzQQwDbnG1-0" value="" style="rounded=0;whiteSpace=wrap;html=1;fillColor=none;" vertex="1" parent="Mu2sOL8I9shYQxzjJvbA-1">
          <mxGeometry width="670" height="780" as="geometry" />
        </mxCell>
        <mxCell id="pfdg3GkmwepzQQwDbnG1-1" value="Sd02 - Sign In" style="rounded=1;whiteSpace=wrap;html=1;" vertex="1" parent="Mu2sOL8I9shYQxzjJvbA-1">
          <mxGeometry width="90" height="30" as="geometry" />
        </mxCell>
      </root>
    </mxGraphModel>
  </diagram>
  <diagram name="Manage Book" id="TWvMLt2cz5SK6jOKdHU-">
    <mxGraphModel dx="906" dy="502" grid="1" gridSize="10" guides="1" tooltips="1" connect="1" arrows="1" fold="1" page="1" pageScale="1" pageWidth="1100" pageHeight="850" background="none" math="0" shadow="0">
      <root>
        <mxCell id="OdWZ1S9cFzBzejWp1gn_-0" />
        <mxCell id="OdWZ1S9cFzBzejWp1gn_-1" parent="OdWZ1S9cFzBzejWp1gn_-0" />
        <mxCell id="dqXV2TLxfXXXm9Qs9-eq-0" value="" style="rounded=0;whiteSpace=wrap;html=1;fillColor=none;" vertex="1" parent="OdWZ1S9cFzBzejWp1gn_-1">
          <mxGeometry width="670" height="780" as="geometry" />
        </mxCell>
        <mxCell id="OdWZ1S9cFzBzejWp1gn_-2" value="" style="rounded=0;whiteSpace=wrap;html=1;fillColor=none;strokeColor=#994C00;" vertex="1" parent="OdWZ1S9cFzBzejWp1gn_-1">
          <mxGeometry x="180" y="520" width="470" height="210" as="geometry" />
        </mxCell>
        <mxCell id="OdWZ1S9cFzBzejWp1gn_-3" value="" style="rounded=0;whiteSpace=wrap;html=1;fillColor=none;strokeColor=#006600;" vertex="1" parent="OdWZ1S9cFzBzejWp1gn_-1">
          <mxGeometry x="60" y="270" width="330" height="140" as="geometry" />
        </mxCell>
        <mxCell id="OdWZ1S9cFzBzejWp1gn_-4" value="Program" style="shape=umlLifeline;perimeter=lifelinePerimeter;whiteSpace=wrap;html=1;container=1;collapsible=0;recursiveResize=0;outlineConnect=0;rounded=1;shadow=0;comic=0;labelBackgroundColor=none;strokeWidth=1;fontFamily=Verdana;fontSize=12;align=center;" vertex="1" parent="OdWZ1S9cFzBzejWp1gn_-1">
          <mxGeometry x="240" y="80" width="100" height="710" as="geometry" />
        </mxCell>
        <mxCell id="OdWZ1S9cFzBzejWp1gn_-5" value="" style="html=1;points=[];perimeter=orthogonalPerimeter;rounded=0;shadow=0;comic=0;labelBackgroundColor=none;strokeWidth=1;fontFamily=Verdana;fontSize=12;align=center;" vertex="1" parent="OdWZ1S9cFzBzejWp1gn_-4">
          <mxGeometry x="45" y="210" width="10" height="480" as="geometry" />
        </mxCell>
        <mxCell id="LCltBtKxuQcjyWuavyJo-7" value="[result not null]" style="text;html=1;align=center;verticalAlign=middle;resizable=0;points=[];autosize=1;strokeColor=none;fillColor=none;" vertex="1" parent="OdWZ1S9cFzBzejWp1gn_-4">
          <mxGeometry x="-60" y="500" width="100" height="30" as="geometry" />
        </mxCell>
        <mxCell id="LCltBtKxuQcjyWuavyJo-8" value="error msg:&amp;nbsp;&lt;div&gt;Book exist&lt;/div&gt;" style="endArrow=classic;html=1;rounded=0;edgeStyle=orthogonalEdgeStyle;verticalAlign=bottom;exitX=1.128;exitY=0.149;exitDx=0;exitDy=0;exitPerimeter=0;entryX=0.84;entryY=0.344;entryDx=0;entryDy=0;entryPerimeter=0;" edge="1" parent="OdWZ1S9cFzBzejWp1gn_-4">
          <mxGeometry x="0.1265" width="50" height="50" relative="1" as="geometry">
            <mxPoint x="58" y="480.5" as="sourcePoint" />
            <mxPoint x="55" y="519.5" as="targetPoint" />
            <Array as="points">
              <mxPoint x="108" y="480.5" />
              <mxPoint x="108" y="519.5" />
            </Array>
            <mxPoint as="offset" />
          </mxGeometry>
        </mxCell>
        <mxCell id="LCltBtKxuQcjyWuavyJo-12" value="" style="endArrow=classic;html=1;rounded=0;exitX=0.9;exitY=0.64;exitDx=0;exitDy=0;exitPerimeter=0;entryX=-0.06;entryY=0.3;entryDx=0;entryDy=0;entryPerimeter=0;" edge="1" parent="OdWZ1S9cFzBzejWp1gn_-4" target="LCltBtKxuQcjyWuavyJo-11">
          <mxGeometry width="50" height="50" relative="1" as="geometry">
            <mxPoint x="55" y="590" as="sourcePoint" />
            <mxPoint x="200" y="591" as="targetPoint" />
          </mxGeometry>
        </mxCell>
        <mxCell id="dqXV2TLxfXXXm9Qs9-eq-2" value="" style="html=1;points=[];perimeter=orthogonalPerimeter;rounded=0;shadow=0;comic=0;labelBackgroundColor=none;strokeWidth=1;fontFamily=Verdana;fontSize=12;align=center;" vertex="1" parent="OdWZ1S9cFzBzejWp1gn_-4">
          <mxGeometry x="45" y="80" width="10" height="90" as="geometry" />
        </mxCell>
        <mxCell id="OdWZ1S9cFzBzejWp1gn_-8" value=":Book" style="shape=umlLifeline;perimeter=lifelinePerimeter;whiteSpace=wrap;html=1;container=1;collapsible=0;recursiveResize=0;outlineConnect=0;rounded=1;shadow=0;comic=0;labelBackgroundColor=none;strokeWidth=1;fontFamily=Verdana;fontSize=12;align=center;" vertex="1" parent="OdWZ1S9cFzBzejWp1gn_-1">
          <mxGeometry x="400" y="80" width="100" height="700" as="geometry" />
        </mxCell>
        <mxCell id="OdWZ1S9cFzBzejWp1gn_-9" value="" style="html=1;points=[];perimeter=orthogonalPerimeter;rounded=0;shadow=0;comic=0;labelBackgroundColor=none;strokeWidth=1;fontFamily=Verdana;fontSize=12;align=center;" vertex="1" parent="OdWZ1S9cFzBzejWp1gn_-8">
          <mxGeometry x="45" y="360" width="10" height="40" as="geometry" />
        </mxCell>
        <mxCell id="LCltBtKxuQcjyWuavyJo-1" value="&lt;div&gt;bookExist()&lt;/div&gt;" style="endArrow=classic;html=1;rounded=0;edgeStyle=orthogonalEdgeStyle;verticalAlign=bottom;exitX=1.128;exitY=0.149;exitDx=0;exitDy=0;exitPerimeter=0;" edge="1" parent="OdWZ1S9cFzBzejWp1gn_-8">
          <mxGeometry x="0.0123" y="-9" width="50" height="50" relative="1" as="geometry">
            <mxPoint x="58" y="391" as="sourcePoint" />
            <mxPoint x="220" y="391" as="targetPoint" />
            <Array as="points">
              <mxPoint x="160" y="391" />
              <mxPoint x="160" y="391" />
            </Array>
            <mxPoint as="offset" />
          </mxGeometry>
        </mxCell>
        <mxCell id="LCltBtKxuQcjyWuavyJo-11" value="" style="html=1;points=[];perimeter=orthogonalPerimeter;rounded=0;shadow=0;comic=0;labelBackgroundColor=none;strokeWidth=1;fontFamily=Verdana;fontSize=12;align=center;" vertex="1" parent="OdWZ1S9cFzBzejWp1gn_-8">
          <mxGeometry x="45" y="580" width="10" height="40" as="geometry" />
        </mxCell>
        <mxCell id="OdWZ1S9cFzBzejWp1gn_-14" value="Guest" style="shape=umlActor;verticalLabelPosition=bottom;verticalAlign=top;html=1;outlineConnect=0;" vertex="1" parent="OdWZ1S9cFzBzejWp1gn_-1">
          <mxGeometry x="60" y="40" width="40" height="80" as="geometry" />
        </mxCell>
        <mxCell id="OdWZ1S9cFzBzejWp1gn_-15" value="" style="endArrow=none;dashed=1;html=1;rounded=0;" edge="1" parent="OdWZ1S9cFzBzejWp1gn_-1" target="OdWZ1S9cFzBzejWp1gn_-14">
          <mxGeometry width="50" height="50" relative="1" as="geometry">
            <mxPoint x="80" y="780" as="sourcePoint" />
            <mxPoint x="490" y="270" as="targetPoint" />
          </mxGeometry>
        </mxCell>
        <mxCell id="OdWZ1S9cFzBzejWp1gn_-16" value="DB" style="shape=cylinder3;whiteSpace=wrap;html=1;boundedLbl=1;backgroundOutline=1;size=15;" vertex="1" parent="OdWZ1S9cFzBzejWp1gn_-1">
          <mxGeometry x="590" y="50" width="60" height="70" as="geometry" />
        </mxCell>
        <mxCell id="OdWZ1S9cFzBzejWp1gn_-17" value="" style="endArrow=none;dashed=1;html=1;rounded=0;entryX=0.5;entryY=1;entryDx=0;entryDy=0;entryPerimeter=0;" edge="1" parent="OdWZ1S9cFzBzejWp1gn_-1" source="LCltBtKxuQcjyWuavyJo-2" target="OdWZ1S9cFzBzejWp1gn_-16">
          <mxGeometry width="50" height="50" relative="1" as="geometry">
            <mxPoint x="620" y="440" as="sourcePoint" />
            <mxPoint x="660" y="290" as="targetPoint" />
          </mxGeometry>
        </mxCell>
        <mxCell id="OdWZ1S9cFzBzejWp1gn_-18" value="Add Book" style="endArrow=classic;html=1;rounded=0;verticalAlign=bottom;" edge="1" parent="OdWZ1S9cFzBzejWp1gn_-1">
          <mxGeometry width="50" height="50" relative="1" as="geometry">
            <mxPoint x="80" y="310" as="sourcePoint" />
            <mxPoint x="289.5" y="310" as="targetPoint" />
          </mxGeometry>
        </mxCell>
        <mxCell id="OdWZ1S9cFzBzejWp1gn_-20" value="Loop" style="rounded=0;whiteSpace=wrap;html=1;fillColor=#99FF99;strokeColor=#006600;" vertex="1" parent="OdWZ1S9cFzBzejWp1gn_-1">
          <mxGeometry x="60" y="390" width="60" height="20" as="geometry" />
        </mxCell>
        <mxCell id="OdWZ1S9cFzBzejWp1gn_-21" value="[Invalid Input]" style="text;html=1;align=center;verticalAlign=middle;resizable=0;points=[];autosize=1;strokeColor=none;fillColor=none;" vertex="1" parent="OdWZ1S9cFzBzejWp1gn_-1">
          <mxGeometry x="140" y="350" width="90" height="30" as="geometry" />
        </mxCell>
        <mxCell id="OdWZ1S9cFzBzejWp1gn_-27" value="Alt" style="rounded=0;whiteSpace=wrap;html=1;fillColor=#FF8000;strokeColor=none;" vertex="1" parent="OdWZ1S9cFzBzejWp1gn_-1">
          <mxGeometry x="180" y="520" width="60" height="20" as="geometry" />
        </mxCell>
        <mxCell id="LCltBtKxuQcjyWuavyJo-0" value="error msg:&amp;nbsp;&lt;div&gt;Invalid Input&lt;/div&gt;" style="endArrow=classic;html=1;rounded=0;edgeStyle=orthogonalEdgeStyle;verticalAlign=bottom;exitX=1.128;exitY=0.149;exitDx=0;exitDy=0;exitPerimeter=0;entryX=0.84;entryY=0.344;entryDx=0;entryDy=0;entryPerimeter=0;" edge="1" parent="OdWZ1S9cFzBzejWp1gn_-1">
          <mxGeometry x="0.1265" width="50" height="50" relative="1" as="geometry">
            <mxPoint x="293" y="320" as="sourcePoint" />
            <mxPoint x="290" y="359" as="targetPoint" />
            <Array as="points">
              <mxPoint x="343" y="320" />
              <mxPoint x="343" y="359" />
            </Array>
            <mxPoint as="offset" />
          </mxGeometry>
        </mxCell>
        <mxCell id="OdWZ1S9cFzBzejWp1gn_-22" value="new Book()" style="endArrow=classic;html=1;rounded=0;verticalAlign=bottom;entryX=0.053;entryY=0.032;entryDx=0;entryDy=0;entryPerimeter=0;" edge="1" parent="OdWZ1S9cFzBzejWp1gn_-1">
          <mxGeometry width="50" height="50" relative="1" as="geometry">
            <mxPoint x="288.97" y="450" as="sourcePoint" />
            <mxPoint x="445" y="450" as="targetPoint" />
          </mxGeometry>
        </mxCell>
        <mxCell id="LCltBtKxuQcjyWuavyJo-3" value="" style="endArrow=none;dashed=1;html=1;rounded=0;entryX=0.5;entryY=1;entryDx=0;entryDy=0;entryPerimeter=0;" edge="1" parent="OdWZ1S9cFzBzejWp1gn_-1" target="LCltBtKxuQcjyWuavyJo-2">
          <mxGeometry width="50" height="50" relative="1" as="geometry">
            <mxPoint x="620" y="550" as="sourcePoint" />
            <mxPoint x="620" y="230" as="targetPoint" />
          </mxGeometry>
        </mxCell>
        <mxCell id="LCltBtKxuQcjyWuavyJo-2" value="" style="html=1;points=[];perimeter=orthogonalPerimeter;rounded=0;shadow=0;comic=0;labelBackgroundColor=none;strokeWidth=1;fontFamily=Verdana;fontSize=12;align=center;" vertex="1" parent="OdWZ1S9cFzBzejWp1gn_-1">
          <mxGeometry x="615" y="460" width="10" height="270" as="geometry" />
        </mxCell>
        <mxCell id="LCltBtKxuQcjyWuavyJo-4" value="" style="endArrow=classic;html=1;rounded=0;exitX=0.14;exitY=0.552;exitDx=0;exitDy=0;exitPerimeter=0;" edge="1" parent="OdWZ1S9cFzBzejWp1gn_-1">
          <mxGeometry width="50" height="50" relative="1" as="geometry">
            <mxPoint x="615.0000000000001" y="539.5" as="sourcePoint" />
            <mxPoint x="289.32352941176464" y="539.5" as="targetPoint" />
          </mxGeometry>
        </mxCell>
        <mxCell id="LCltBtKxuQcjyWuavyJo-6" value="" style="endArrow=none;dashed=1;html=1;rounded=0;exitX=0.003;exitY=0.541;exitDx=0;exitDy=0;exitPerimeter=0;entryX=0.997;entryY=0.533;entryDx=0;entryDy=0;entryPerimeter=0;fontColor=#994C00;strokeColor=#994C00;" edge="1" parent="OdWZ1S9cFzBzejWp1gn_-1" source="OdWZ1S9cFzBzejWp1gn_-2" target="OdWZ1S9cFzBzejWp1gn_-2">
          <mxGeometry width="50" height="50" relative="1" as="geometry">
            <mxPoint x="320" y="600" as="sourcePoint" />
            <mxPoint x="370" y="550" as="targetPoint" />
          </mxGeometry>
        </mxCell>
        <mxCell id="LCltBtKxuQcjyWuavyJo-9" value="[result null]" style="text;html=1;align=center;verticalAlign=middle;resizable=0;points=[];autosize=1;strokeColor=none;fillColor=none;" vertex="1" parent="OdWZ1S9cFzBzejWp1gn_-1">
          <mxGeometry x="190" y="660" width="80" height="30" as="geometry" />
        </mxCell>
        <mxCell id="LCltBtKxuQcjyWuavyJo-10" value="addBook()" style="endArrow=classic;html=1;rounded=0;entryX=-0.18;entryY=0.841;entryDx=0;entryDy=0;entryPerimeter=0;exitX=0.9;exitY=0.64;exitDx=0;exitDy=0;exitPerimeter=0;verticalAlign=bottom;" edge="1" parent="OdWZ1S9cFzBzejWp1gn_-1" source="LCltBtKxuQcjyWuavyJo-11" target="LCltBtKxuQcjyWuavyJo-2">
          <mxGeometry width="50" height="50" relative="1" as="geometry">
            <mxPoint x="480" y="690" as="sourcePoint" />
            <mxPoint x="530" y="640" as="targetPoint" />
          </mxGeometry>
        </mxCell>
        <mxCell id="dqXV2TLxfXXXm9Qs9-eq-1" value="Sd03 - Add Book" style="rounded=1;whiteSpace=wrap;html=1;" vertex="1" parent="OdWZ1S9cFzBzejWp1gn_-1">
          <mxGeometry width="120" height="30" as="geometry" />
        </mxCell>
        <mxCell id="dqXV2TLxfXXXm9Qs9-eq-3" value="" style="rounded=0;whiteSpace=wrap;html=1;fillColor=none;strokeColor=#CC0000;" vertex="1" parent="OdWZ1S9cFzBzejWp1gn_-1">
          <mxGeometry x="50" y="170" width="280" height="60" as="geometry" />
        </mxCell>
        <mxCell id="dqXV2TLxfXXXm9Qs9-eq-4" value="ref" style="rounded=0;whiteSpace=wrap;html=1;fillColor=#FF3333;strokeColor=none;" vertex="1" parent="OdWZ1S9cFzBzejWp1gn_-1">
          <mxGeometry x="50" y="170" width="50" height="20" as="geometry" />
        </mxCell>
        <mxCell id="dqXV2TLxfXXXm9Qs9-eq-5" value="[Sd01 - Log In]" style="text;html=1;align=center;verticalAlign=middle;resizable=0;points=[];autosize=1;strokeColor=none;fillColor=none;" vertex="1" parent="OdWZ1S9cFzBzejWp1gn_-1">
          <mxGeometry x="130" y="185" width="100" height="30" as="geometry" />
        </mxCell>
      </root>
    </mxGraphModel>
  </diagram>
  <diagram name="Deactivate User" id="R4KgtmUpCi8oaZ9PqGqv">
    <mxGraphModel dx="1489" dy="824" grid="1" gridSize="10" guides="1" tooltips="1" connect="1" arrows="1" fold="1" page="1" pageScale="1" pageWidth="1100" pageHeight="850" background="none" math="0" shadow="0">
      <root>
        <mxCell id="1c8eFsrHzfOdRPMQcOx1-0" />
        <mxCell id="1c8eFsrHzfOdRPMQcOx1-1" parent="1c8eFsrHzfOdRPMQcOx1-0" />
        <mxCell id="XIVs9_eRRaryg2gmmSad-0" value="" style="rounded=0;whiteSpace=wrap;html=1;fillColor=none;strokeColor=#994C00;" vertex="1" parent="1c8eFsrHzfOdRPMQcOx1-1">
          <mxGeometry x="170" y="350" width="470" height="210" as="geometry" />
        </mxCell>
        <mxCell id="1c8eFsrHzfOdRPMQcOx1-2" value="" style="rounded=0;whiteSpace=wrap;html=1;fillColor=none;" vertex="1" parent="1c8eFsrHzfOdRPMQcOx1-1">
          <mxGeometry width="670" height="610" as="geometry" />
        </mxCell>
        <mxCell id="1c8eFsrHzfOdRPMQcOx1-5" value="Program" style="shape=umlLifeline;perimeter=lifelinePerimeter;whiteSpace=wrap;html=1;container=1;collapsible=0;recursiveResize=0;outlineConnect=0;rounded=1;shadow=0;comic=0;labelBackgroundColor=none;strokeWidth=1;fontFamily=Verdana;fontSize=12;align=center;" vertex="1" parent="1c8eFsrHzfOdRPMQcOx1-1">
          <mxGeometry x="240" y="80" width="100" height="710" as="geometry" />
        </mxCell>
        <mxCell id="1c8eFsrHzfOdRPMQcOx1-6" value="" style="html=1;points=[];perimeter=orthogonalPerimeter;rounded=0;shadow=0;comic=0;labelBackgroundColor=none;strokeWidth=1;fontFamily=Verdana;fontSize=12;align=center;" vertex="1" parent="1c8eFsrHzfOdRPMQcOx1-5">
          <mxGeometry x="45" y="210" width="10" height="440" as="geometry" />
        </mxCell>
        <mxCell id="1c8eFsrHzfOdRPMQcOx1-10" value="" style="html=1;points=[];perimeter=orthogonalPerimeter;rounded=0;shadow=0;comic=0;labelBackgroundColor=none;strokeWidth=1;fontFamily=Verdana;fontSize=12;align=center;" vertex="1" parent="1c8eFsrHzfOdRPMQcOx1-5">
          <mxGeometry x="45" y="80" width="10" height="90" as="geometry" />
        </mxCell>
        <mxCell id="1c8eFsrHzfOdRPMQcOx1-11" value=":User" style="shape=umlLifeline;perimeter=lifelinePerimeter;whiteSpace=wrap;html=1;container=1;collapsible=0;recursiveResize=0;outlineConnect=0;rounded=1;shadow=0;comic=0;labelBackgroundColor=none;strokeWidth=1;fontFamily=Verdana;fontSize=12;align=center;" vertex="1" parent="1c8eFsrHzfOdRPMQcOx1-1">
          <mxGeometry x="400" y="80" width="100" height="700" as="geometry" />
        </mxCell>
        <mxCell id="9weZZUTryyCGfmEeUrDn-0" value="" style="html=1;points=[];perimeter=orthogonalPerimeter;rounded=0;shadow=0;comic=0;labelBackgroundColor=none;strokeWidth=1;fontFamily=Verdana;fontSize=12;align=center;" vertex="1" parent="1c8eFsrHzfOdRPMQcOx1-11">
          <mxGeometry x="45" y="220" width="10" height="80" as="geometry" />
        </mxCell>
        <mxCell id="rF8jiX_f5vVuxuTM-Ug3-1" value="" style="html=1;points=[];perimeter=orthogonalPerimeter;rounded=0;shadow=0;comic=0;labelBackgroundColor=none;strokeWidth=1;fontFamily=Verdana;fontSize=12;align=center;" vertex="1" parent="1c8eFsrHzfOdRPMQcOx1-11">
          <mxGeometry x="45" y="390" width="10" height="80" as="geometry" />
        </mxCell>
        <mxCell id="1c8eFsrHzfOdRPMQcOx1-15" value="Guest" style="shape=umlActor;verticalLabelPosition=bottom;verticalAlign=top;html=1;outlineConnect=0;" vertex="1" parent="1c8eFsrHzfOdRPMQcOx1-1">
          <mxGeometry x="60" y="40" width="40" height="80" as="geometry" />
        </mxCell>
        <mxCell id="1c8eFsrHzfOdRPMQcOx1-16" value="" style="endArrow=none;dashed=1;html=1;rounded=0;" edge="1" parent="1c8eFsrHzfOdRPMQcOx1-1" target="1c8eFsrHzfOdRPMQcOx1-15">
          <mxGeometry width="50" height="50" relative="1" as="geometry">
            <mxPoint x="80" y="780" as="sourcePoint" />
            <mxPoint x="490" y="270" as="targetPoint" />
          </mxGeometry>
        </mxCell>
        <mxCell id="1c8eFsrHzfOdRPMQcOx1-17" value="DB" style="shape=cylinder3;whiteSpace=wrap;html=1;boundedLbl=1;backgroundOutline=1;size=15;" vertex="1" parent="1c8eFsrHzfOdRPMQcOx1-1">
          <mxGeometry x="590" y="50" width="60" height="70" as="geometry" />
        </mxCell>
        <mxCell id="1c8eFsrHzfOdRPMQcOx1-18" value="" style="endArrow=none;dashed=1;html=1;rounded=0;entryX=0.5;entryY=1;entryDx=0;entryDy=0;entryPerimeter=0;" edge="1" parent="1c8eFsrHzfOdRPMQcOx1-1" source="9weZZUTryyCGfmEeUrDn-3" target="1c8eFsrHzfOdRPMQcOx1-17">
          <mxGeometry width="50" height="50" relative="1" as="geometry">
            <mxPoint x="620" y="460" as="sourcePoint" />
            <mxPoint x="660" y="290" as="targetPoint" />
          </mxGeometry>
        </mxCell>
        <mxCell id="1c8eFsrHzfOdRPMQcOx1-19" value="Input User&#39;s Name" style="endArrow=classic;html=1;rounded=0;verticalAlign=bottom;" edge="1" parent="1c8eFsrHzfOdRPMQcOx1-1">
          <mxGeometry width="50" height="50" relative="1" as="geometry">
            <mxPoint x="80" y="310" as="sourcePoint" />
            <mxPoint x="289.5" y="310" as="targetPoint" />
          </mxGeometry>
        </mxCell>
        <mxCell id="1c8eFsrHzfOdRPMQcOx1-31" value="Sd04 - Deactivate user" style="rounded=1;whiteSpace=wrap;html=1;" vertex="1" parent="1c8eFsrHzfOdRPMQcOx1-1">
          <mxGeometry width="140" height="30" as="geometry" />
        </mxCell>
        <mxCell id="1c8eFsrHzfOdRPMQcOx1-32" value="" style="rounded=0;whiteSpace=wrap;html=1;fillColor=none;strokeColor=#CC0000;" vertex="1" parent="1c8eFsrHzfOdRPMQcOx1-1">
          <mxGeometry x="50" y="170" width="280" height="60" as="geometry" />
        </mxCell>
        <mxCell id="1c8eFsrHzfOdRPMQcOx1-33" value="ref" style="rounded=0;whiteSpace=wrap;html=1;fillColor=#FF3333;strokeColor=none;" vertex="1" parent="1c8eFsrHzfOdRPMQcOx1-1">
          <mxGeometry x="50" y="170" width="50" height="20" as="geometry" />
        </mxCell>
        <mxCell id="1c8eFsrHzfOdRPMQcOx1-34" value="[Sd01 - Log In]" style="text;html=1;align=center;verticalAlign=middle;resizable=0;points=[];autosize=1;strokeColor=none;fillColor=none;" vertex="1" parent="1c8eFsrHzfOdRPMQcOx1-1">
          <mxGeometry x="130" y="185" width="100" height="30" as="geometry" />
        </mxCell>
        <mxCell id="9weZZUTryyCGfmEeUrDn-1" value="" style="endArrow=classic;html=1;rounded=0;exitX=1.06;exitY=0.109;exitDx=0;exitDy=0;exitPerimeter=0;entryX=0.02;entryY=0.449;entryDx=0;entryDy=0;entryPerimeter=0;" edge="1" parent="1c8eFsrHzfOdRPMQcOx1-1">
          <mxGeometry width="50" height="50" relative="1" as="geometry">
            <mxPoint x="295.5999999999999" y="320.00000000000006" as="sourcePoint" />
            <mxPoint x="445.20000000000005" y="322.45" as="targetPoint" />
          </mxGeometry>
        </mxCell>
        <mxCell id="9weZZUTryyCGfmEeUrDn-2" value="SearchUserByName()" style="endArrow=classic;html=1;rounded=0;entryX=0.5;entryY=0.208;entryDx=0;entryDy=0;entryPerimeter=0;verticalAlign=bottom;" edge="1" parent="1c8eFsrHzfOdRPMQcOx1-1" target="9weZZUTryyCGfmEeUrDn-3">
          <mxGeometry width="50" height="50" relative="1" as="geometry">
            <mxPoint x="456" y="330" as="sourcePoint" />
            <mxPoint x="609.6" y="332.45" as="targetPoint" />
          </mxGeometry>
        </mxCell>
        <mxCell id="9weZZUTryyCGfmEeUrDn-4" value="" style="endArrow=none;dashed=1;html=1;rounded=0;entryX=0.5;entryY=1;entryDx=0;entryDy=0;entryPerimeter=0;exitX=0.46;exitY=0.104;exitDx=0;exitDy=0;exitPerimeter=0;" edge="1" parent="1c8eFsrHzfOdRPMQcOx1-1" source="rF8jiX_f5vVuxuTM-Ug3-4" target="9weZZUTryyCGfmEeUrDn-3">
          <mxGeometry width="50" height="50" relative="1" as="geometry">
            <mxPoint x="620" y="460" as="sourcePoint" />
            <mxPoint x="620" y="120" as="targetPoint" />
          </mxGeometry>
        </mxCell>
        <mxCell id="9weZZUTryyCGfmEeUrDn-3" value="" style="html=1;points=[];perimeter=orthogonalPerimeter;rounded=0;shadow=0;comic=0;labelBackgroundColor=none;strokeWidth=1;fontFamily=Verdana;fontSize=12;align=center;" vertex="1" parent="1c8eFsrHzfOdRPMQcOx1-1">
          <mxGeometry x="615" y="320" width="10" height="50" as="geometry" />
        </mxCell>
        <mxCell id="I2hXBY24BKZVWyNq4YBP-0" value="" style="endArrow=classic;html=1;rounded=0;exitX=0.22;exitY=0.872;exitDx=0;exitDy=0;exitPerimeter=0;entryX=0.9;entryY=0.795;entryDx=0;entryDy=0;entryPerimeter=0;" edge="1" parent="1c8eFsrHzfOdRPMQcOx1-1" source="9weZZUTryyCGfmEeUrDn-3" target="9weZZUTryyCGfmEeUrDn-0">
          <mxGeometry width="50" height="50" relative="1" as="geometry">
            <mxPoint x="310" y="420" as="sourcePoint" />
            <mxPoint x="360" y="370" as="targetPoint" />
          </mxGeometry>
        </mxCell>
        <mxCell id="I2hXBY24BKZVWyNq4YBP-1" value="" style="endArrow=classic;html=1;rounded=0;exitX=0.22;exitY=0.872;exitDx=0;exitDy=0;exitPerimeter=0;entryX=0.9;entryY=0.795;entryDx=0;entryDy=0;entryPerimeter=0;" edge="1" parent="1c8eFsrHzfOdRPMQcOx1-1">
          <mxGeometry width="50" height="50" relative="1" as="geometry">
            <mxPoint x="453" y="380" as="sourcePoint" />
            <mxPoint x="290" y="380" as="targetPoint" />
          </mxGeometry>
        </mxCell>
        <mxCell id="XIVs9_eRRaryg2gmmSad-1" value="Alt" style="rounded=0;whiteSpace=wrap;html=1;fillColor=#FF8000;strokeColor=none;" vertex="1" parent="1c8eFsrHzfOdRPMQcOx1-1">
          <mxGeometry x="170" y="350" width="60" height="20" as="geometry" />
        </mxCell>
        <mxCell id="XIVs9_eRRaryg2gmmSad-2" value="" style="endArrow=none;dashed=1;html=1;rounded=0;exitX=0.003;exitY=0.541;exitDx=0;exitDy=0;exitPerimeter=0;entryX=0.997;entryY=0.533;entryDx=0;entryDy=0;entryPerimeter=0;fontColor=#994C00;strokeColor=#994C00;" edge="1" parent="1c8eFsrHzfOdRPMQcOx1-1" source="XIVs9_eRRaryg2gmmSad-0" target="XIVs9_eRRaryg2gmmSad-0">
          <mxGeometry width="50" height="50" relative="1" as="geometry">
            <mxPoint x="310" y="430" as="sourcePoint" />
            <mxPoint x="360" y="380" as="targetPoint" />
          </mxGeometry>
        </mxCell>
        <mxCell id="XIVs9_eRRaryg2gmmSad-3" value="[result not null]" style="text;html=1;align=center;verticalAlign=middle;resizable=0;points=[];autosize=1;strokeColor=none;fillColor=none;" vertex="1" parent="1c8eFsrHzfOdRPMQcOx1-1">
          <mxGeometry x="170" y="500" width="100" height="30" as="geometry" />
        </mxCell>
        <mxCell id="XIVs9_eRRaryg2gmmSad-4" value="[result null]" style="text;html=1;align=center;verticalAlign=middle;resizable=0;points=[];autosize=1;strokeColor=none;fillColor=none;" vertex="1" parent="1c8eFsrHzfOdRPMQcOx1-1">
          <mxGeometry x="180" y="415" width="80" height="30" as="geometry" />
        </mxCell>
        <mxCell id="rF8jiX_f5vVuxuTM-Ug3-0" value="error msg:&amp;nbsp;&lt;div&gt;user not found&lt;/div&gt;" style="endArrow=classic;html=1;rounded=0;edgeStyle=orthogonalEdgeStyle;verticalAlign=bottom;exitX=1.128;exitY=0.149;exitDx=0;exitDy=0;exitPerimeter=0;entryX=0.84;entryY=0.344;entryDx=0;entryDy=0;entryPerimeter=0;" edge="1" parent="1c8eFsrHzfOdRPMQcOx1-1">
          <mxGeometry x="0.1265" width="50" height="50" relative="1" as="geometry">
            <mxPoint x="298" y="406" as="sourcePoint" />
            <mxPoint x="295" y="445" as="targetPoint" />
            <Array as="points">
              <mxPoint x="348" y="406" />
              <mxPoint x="348" y="445" />
            </Array>
            <mxPoint as="offset" />
          </mxGeometry>
        </mxCell>
        <mxCell id="rF8jiX_f5vVuxuTM-Ug3-2" value="" style="endArrow=classic;html=1;rounded=0;exitX=0.98;exitY=0.455;exitDx=0;exitDy=0;exitPerimeter=0;entryX=0.02;entryY=0.22;entryDx=0;entryDy=0;entryPerimeter=0;" edge="1" parent="1c8eFsrHzfOdRPMQcOx1-1" source="1c8eFsrHzfOdRPMQcOx1-6" target="rF8jiX_f5vVuxuTM-Ug3-1">
          <mxGeometry width="50" height="50" relative="1" as="geometry">
            <mxPoint x="310" y="460" as="sourcePoint" />
            <mxPoint x="360" y="410" as="targetPoint" />
          </mxGeometry>
        </mxCell>
        <mxCell id="rF8jiX_f5vVuxuTM-Ug3-3" value="updateUserStatus()" style="endArrow=classic;html=1;rounded=0;exitX=0.98;exitY=0.455;exitDx=0;exitDy=0;exitPerimeter=0;entryX=0.02;entryY=0.22;entryDx=0;entryDy=0;entryPerimeter=0;verticalAlign=bottom;" edge="1" parent="1c8eFsrHzfOdRPMQcOx1-1">
          <mxGeometry width="50" height="50" relative="1" as="geometry">
            <mxPoint x="460" y="500" as="sourcePoint" />
            <mxPoint x="610" y="498" as="targetPoint" />
          </mxGeometry>
        </mxCell>
        <mxCell id="rF8jiX_f5vVuxuTM-Ug3-5" value="" style="endArrow=none;dashed=1;html=1;rounded=0;entryX=0.5;entryY=1;entryDx=0;entryDy=0;entryPerimeter=0;exitX=0.927;exitY=0.999;exitDx=0;exitDy=0;exitPerimeter=0;" edge="1" parent="1c8eFsrHzfOdRPMQcOx1-1" source="1c8eFsrHzfOdRPMQcOx1-2" target="rF8jiX_f5vVuxuTM-Ug3-4">
          <mxGeometry width="50" height="50" relative="1" as="geometry">
            <mxPoint x="621" y="779" as="sourcePoint" />
            <mxPoint x="620" y="370" as="targetPoint" />
          </mxGeometry>
        </mxCell>
        <mxCell id="rF8jiX_f5vVuxuTM-Ug3-4" value="" style="html=1;points=[];perimeter=orthogonalPerimeter;rounded=0;shadow=0;comic=0;labelBackgroundColor=none;strokeWidth=1;fontFamily=Verdana;fontSize=12;align=center;" vertex="1" parent="1c8eFsrHzfOdRPMQcOx1-1">
          <mxGeometry x="615" y="487.5" width="10" height="55" as="geometry" />
        </mxCell>
      </root>
    </mxGraphModel>
  </diagram>
  <diagram name="Update User Info" id="QkoKWUOi0ln1KuiYZ_G7">
    <mxGraphModel dx="1489" dy="824" grid="1" gridSize="10" guides="1" tooltips="1" connect="1" arrows="1" fold="1" page="1" pageScale="1" pageWidth="1100" pageHeight="850" background="none" math="0" shadow="0">
      <root>
        <mxCell id="N9I_wGDQh2rNohFC46Qx-0" />
        <mxCell id="N9I_wGDQh2rNohFC46Qx-1" parent="N9I_wGDQh2rNohFC46Qx-0" />
        <mxCell id="N9I_wGDQh2rNohFC46Qx-2" value="" style="rounded=0;whiteSpace=wrap;html=1;fillColor=none;" vertex="1" parent="N9I_wGDQh2rNohFC46Qx-1">
          <mxGeometry width="670" height="670" as="geometry" />
        </mxCell>
        <mxCell id="N9I_wGDQh2rNohFC46Qx-4" value="" style="rounded=0;whiteSpace=wrap;html=1;fillColor=none;strokeColor=#006600;" vertex="1" parent="N9I_wGDQh2rNohFC46Qx-1">
          <mxGeometry x="60" y="425" width="330" height="140" as="geometry" />
        </mxCell>
        <mxCell id="N9I_wGDQh2rNohFC46Qx-5" value="Program" style="shape=umlLifeline;perimeter=lifelinePerimeter;whiteSpace=wrap;html=1;container=1;collapsible=0;recursiveResize=0;outlineConnect=0;rounded=1;shadow=0;comic=0;labelBackgroundColor=none;strokeWidth=1;fontFamily=Verdana;fontSize=12;align=center;" vertex="1" parent="N9I_wGDQh2rNohFC46Qx-1">
          <mxGeometry x="240" y="80" width="100" height="710" as="geometry" />
        </mxCell>
        <mxCell id="N9I_wGDQh2rNohFC46Qx-6" value="" style="html=1;points=[];perimeter=orthogonalPerimeter;rounded=0;shadow=0;comic=0;labelBackgroundColor=none;strokeWidth=1;fontFamily=Verdana;fontSize=12;align=center;" vertex="1" parent="N9I_wGDQh2rNohFC46Qx-5">
          <mxGeometry x="45" y="210" width="10" height="480" as="geometry" />
        </mxCell>
        <mxCell id="N9I_wGDQh2rNohFC46Qx-10" value="" style="html=1;points=[];perimeter=orthogonalPerimeter;rounded=0;shadow=0;comic=0;labelBackgroundColor=none;strokeWidth=1;fontFamily=Verdana;fontSize=12;align=center;" vertex="1" parent="N9I_wGDQh2rNohFC46Qx-5">
          <mxGeometry x="45" y="80" width="10" height="90" as="geometry" />
        </mxCell>
        <mxCell id="N9I_wGDQh2rNohFC46Qx-11" value=":User" style="shape=umlLifeline;perimeter=lifelinePerimeter;whiteSpace=wrap;html=1;container=1;collapsible=0;recursiveResize=0;outlineConnect=0;rounded=1;shadow=0;comic=0;labelBackgroundColor=none;strokeWidth=1;fontFamily=Verdana;fontSize=12;align=center;" vertex="1" parent="N9I_wGDQh2rNohFC46Qx-1">
          <mxGeometry x="400" y="80" width="100" height="700" as="geometry" />
        </mxCell>
        <mxCell id="Aikrb6GQWHXUE_prXgIY-0" value="" style="html=1;points=[];perimeter=orthogonalPerimeter;rounded=0;shadow=0;comic=0;labelBackgroundColor=none;strokeWidth=1;fontFamily=Verdana;fontSize=12;align=center;" vertex="1" parent="N9I_wGDQh2rNohFC46Qx-11">
          <mxGeometry x="45" y="230" width="10" height="60" as="geometry" />
        </mxCell>
        <mxCell id="Aikrb6GQWHXUE_prXgIY-2" value="" style="endArrow=classic;html=1;rounded=0;verticalAlign=bottom;" edge="1" parent="N9I_wGDQh2rNohFC46Qx-11">
          <mxGeometry width="50" height="50" relative="1" as="geometry">
            <mxPoint x="-104" y="240" as="sourcePoint" />
            <mxPoint x="50" y="240" as="targetPoint" />
          </mxGeometry>
        </mxCell>
        <mxCell id="Aikrb6GQWHXUE_prXgIY-5" value="" style="html=1;points=[];perimeter=orthogonalPerimeter;rounded=0;shadow=0;comic=0;labelBackgroundColor=none;strokeWidth=1;fontFamily=Verdana;fontSize=12;align=center;" vertex="1" parent="N9I_wGDQh2rNohFC46Qx-11">
          <mxGeometry x="45" y="510" width="10" height="40" as="geometry" />
        </mxCell>
        <mxCell id="N9I_wGDQh2rNohFC46Qx-15" value="Guest" style="shape=umlActor;verticalLabelPosition=bottom;verticalAlign=top;html=1;outlineConnect=0;" vertex="1" parent="N9I_wGDQh2rNohFC46Qx-1">
          <mxGeometry x="60" y="40" width="40" height="80" as="geometry" />
        </mxCell>
        <mxCell id="N9I_wGDQh2rNohFC46Qx-16" value="" style="endArrow=none;dashed=1;html=1;rounded=0;" edge="1" parent="N9I_wGDQh2rNohFC46Qx-1" target="N9I_wGDQh2rNohFC46Qx-15">
          <mxGeometry width="50" height="50" relative="1" as="geometry">
            <mxPoint x="80" y="780" as="sourcePoint" />
            <mxPoint x="490" y="270" as="targetPoint" />
          </mxGeometry>
        </mxCell>
        <mxCell id="N9I_wGDQh2rNohFC46Qx-17" value="DB" style="shape=cylinder3;whiteSpace=wrap;html=1;boundedLbl=1;backgroundOutline=1;size=15;" vertex="1" parent="N9I_wGDQh2rNohFC46Qx-1">
          <mxGeometry x="590" y="50" width="60" height="70" as="geometry" />
        </mxCell>
        <mxCell id="N9I_wGDQh2rNohFC46Qx-18" value="" style="endArrow=none;dashed=1;html=1;rounded=0;" edge="1" parent="N9I_wGDQh2rNohFC46Qx-1" source="7BSPTdY6O2CCKcvsXmUn-1" target="N9I_wGDQh2rNohFC46Qx-17">
          <mxGeometry width="50" height="50" relative="1" as="geometry">
            <mxPoint x="620" y="780" as="sourcePoint" />
            <mxPoint x="620" y="440" as="targetPoint" />
          </mxGeometry>
        </mxCell>
        <mxCell id="N9I_wGDQh2rNohFC46Qx-19" value="Input info&amp;nbsp;" style="endArrow=classic;html=1;rounded=0;verticalAlign=bottom;" edge="1" parent="N9I_wGDQh2rNohFC46Qx-1">
          <mxGeometry width="50" height="50" relative="1" as="geometry">
            <mxPoint x="80" y="465" as="sourcePoint" />
            <mxPoint x="289.5" y="465" as="targetPoint" />
          </mxGeometry>
        </mxCell>
        <mxCell id="N9I_wGDQh2rNohFC46Qx-20" value="Loop" style="rounded=0;whiteSpace=wrap;html=1;fillColor=#99FF99;strokeColor=#006600;" vertex="1" parent="N9I_wGDQh2rNohFC46Qx-1">
          <mxGeometry x="60" y="545" width="60" height="20" as="geometry" />
        </mxCell>
        <mxCell id="N9I_wGDQh2rNohFC46Qx-21" value="[Invalid Input]" style="text;html=1;align=center;verticalAlign=middle;resizable=0;points=[];autosize=1;strokeColor=none;fillColor=none;" vertex="1" parent="N9I_wGDQh2rNohFC46Qx-1">
          <mxGeometry x="140" y="505" width="90" height="30" as="geometry" />
        </mxCell>
        <mxCell id="N9I_wGDQh2rNohFC46Qx-23" value="error msg:&amp;nbsp;&lt;div&gt;Invalid Input&lt;/div&gt;" style="endArrow=classic;html=1;rounded=0;edgeStyle=orthogonalEdgeStyle;verticalAlign=bottom;exitX=1.128;exitY=0.149;exitDx=0;exitDy=0;exitPerimeter=0;entryX=0.84;entryY=0.344;entryDx=0;entryDy=0;entryPerimeter=0;" edge="1" parent="N9I_wGDQh2rNohFC46Qx-1">
          <mxGeometry x="0.1265" width="50" height="50" relative="1" as="geometry">
            <mxPoint x="293" y="475" as="sourcePoint" />
            <mxPoint x="290" y="514" as="targetPoint" />
            <Array as="points">
              <mxPoint x="343" y="475" />
              <mxPoint x="343" y="514" />
            </Array>
            <mxPoint as="offset" />
          </mxGeometry>
        </mxCell>
        <mxCell id="N9I_wGDQh2rNohFC46Qx-31" value="Sd05 - Update Account Info" style="rounded=1;whiteSpace=wrap;html=1;" vertex="1" parent="N9I_wGDQh2rNohFC46Qx-1">
          <mxGeometry width="150" height="30" as="geometry" />
        </mxCell>
        <mxCell id="N9I_wGDQh2rNohFC46Qx-32" value="" style="rounded=0;whiteSpace=wrap;html=1;fillColor=none;strokeColor=#CC0000;" vertex="1" parent="N9I_wGDQh2rNohFC46Qx-1">
          <mxGeometry x="50" y="170" width="280" height="60" as="geometry" />
        </mxCell>
        <mxCell id="N9I_wGDQh2rNohFC46Qx-33" value="ref" style="rounded=0;whiteSpace=wrap;html=1;fillColor=#FF3333;strokeColor=none;" vertex="1" parent="N9I_wGDQh2rNohFC46Qx-1">
          <mxGeometry x="50" y="170" width="50" height="20" as="geometry" />
        </mxCell>
        <mxCell id="N9I_wGDQh2rNohFC46Qx-34" value="[Sd01 - Log In]" style="text;html=1;align=center;verticalAlign=middle;resizable=0;points=[];autosize=1;strokeColor=none;fillColor=none;" vertex="1" parent="N9I_wGDQh2rNohFC46Qx-1">
          <mxGeometry x="130" y="185" width="100" height="30" as="geometry" />
        </mxCell>
        <mxCell id="Aikrb6GQWHXUE_prXgIY-1" value="Select Display Info" style="endArrow=classic;html=1;rounded=0;entryX=-0.14;entryY=0.038;entryDx=0;entryDy=0;entryPerimeter=0;verticalAlign=bottom;" edge="1" parent="N9I_wGDQh2rNohFC46Qx-1" target="N9I_wGDQh2rNohFC46Qx-6">
          <mxGeometry width="50" height="50" relative="1" as="geometry">
            <mxPoint x="80" y="310" as="sourcePoint" />
            <mxPoint x="130" y="260" as="targetPoint" />
          </mxGeometry>
        </mxCell>
        <mxCell id="Aikrb6GQWHXUE_prXgIY-3" value="" style="endArrow=classic;html=1;rounded=0;entryX=1.3;entryY=0.147;entryDx=0;entryDy=0;entryPerimeter=0;exitX=-0.06;exitY=0.84;exitDx=0;exitDy=0;exitPerimeter=0;" edge="1" parent="N9I_wGDQh2rNohFC46Qx-1">
          <mxGeometry width="50" height="50" relative="1" as="geometry">
            <mxPoint x="444.4000000000001" y="360" as="sourcePoint" />
            <mxPoint x="298" y="360.15999999999997" as="targetPoint" />
          </mxGeometry>
        </mxCell>
        <mxCell id="Aikrb6GQWHXUE_prXgIY-4" value="" style="endArrow=classic;html=1;rounded=0;verticalAlign=bottom;" edge="1" parent="N9I_wGDQh2rNohFC46Qx-1">
          <mxGeometry width="50" height="50" relative="1" as="geometry">
            <mxPoint x="290" y="600" as="sourcePoint" />
            <mxPoint x="444" y="600" as="targetPoint" />
          </mxGeometry>
        </mxCell>
        <mxCell id="Aikrb6GQWHXUE_prXgIY-6" value="updateInfo()" style="endArrow=classic;html=1;rounded=0;verticalAlign=bottom;" edge="1" parent="N9I_wGDQh2rNohFC46Qx-1">
          <mxGeometry width="50" height="50" relative="1" as="geometry">
            <mxPoint x="460" y="610" as="sourcePoint" />
            <mxPoint x="614" y="610" as="targetPoint" />
          </mxGeometry>
        </mxCell>
        <mxCell id="Aikrb6GQWHXUE_prXgIY-8" value="" style="endArrow=none;dashed=1;html=1;rounded=0;" edge="1" parent="N9I_wGDQh2rNohFC46Qx-1" target="Aikrb6GQWHXUE_prXgIY-7">
          <mxGeometry width="50" height="50" relative="1" as="geometry">
            <mxPoint x="620" y="780" as="sourcePoint" />
            <mxPoint x="620" y="120" as="targetPoint" />
          </mxGeometry>
        </mxCell>
        <mxCell id="Aikrb6GQWHXUE_prXgIY-7" value="" style="html=1;points=[];perimeter=orthogonalPerimeter;rounded=0;shadow=0;comic=0;labelBackgroundColor=none;strokeWidth=1;fontFamily=Verdana;fontSize=12;align=center;" vertex="1" parent="N9I_wGDQh2rNohFC46Qx-1">
          <mxGeometry x="615" y="600" width="10" height="40" as="geometry" />
        </mxCell>
        <mxCell id="7BSPTdY6O2CCKcvsXmUn-0" value="userInfo()" style="endArrow=classic;html=1;rounded=0;verticalAlign=bottom;" edge="1" parent="N9I_wGDQh2rNohFC46Qx-1">
          <mxGeometry width="50" height="50" relative="1" as="geometry">
            <mxPoint x="461" y="330" as="sourcePoint" />
            <mxPoint x="615" y="330" as="targetPoint" />
          </mxGeometry>
        </mxCell>
        <mxCell id="7BSPTdY6O2CCKcvsXmUn-2" value="" style="endArrow=none;dashed=1;html=1;rounded=0;" edge="1" parent="N9I_wGDQh2rNohFC46Qx-1" source="Aikrb6GQWHXUE_prXgIY-7" target="7BSPTdY6O2CCKcvsXmUn-1">
          <mxGeometry width="50" height="50" relative="1" as="geometry">
            <mxPoint x="620" y="600" as="sourcePoint" />
            <mxPoint x="620" y="120" as="targetPoint" />
          </mxGeometry>
        </mxCell>
        <mxCell id="7BSPTdY6O2CCKcvsXmUn-1" value="" style="html=1;points=[];perimeter=orthogonalPerimeter;rounded=0;shadow=0;comic=0;labelBackgroundColor=none;strokeWidth=1;fontFamily=Verdana;fontSize=12;align=center;" vertex="1" parent="N9I_wGDQh2rNohFC46Qx-1">
          <mxGeometry x="615" y="320" width="10" height="40" as="geometry" />
        </mxCell>
        <mxCell id="7BSPTdY6O2CCKcvsXmUn-3" value="" style="endArrow=classic;html=1;rounded=0;entryX=0.9;entryY=0.636;entryDx=0;entryDy=0;entryPerimeter=0;exitX=-0.06;exitY=0.84;exitDx=0;exitDy=0;exitPerimeter=0;" edge="1" parent="N9I_wGDQh2rNohFC46Qx-1" target="Aikrb6GQWHXUE_prXgIY-0">
          <mxGeometry width="50" height="50" relative="1" as="geometry">
            <mxPoint x="615.0000000000001" y="350" as="sourcePoint" />
            <mxPoint x="468.6" y="350.15999999999997" as="targetPoint" />
          </mxGeometry>
        </mxCell>
      </root>
    </mxGraphModel>
  </diagram>
  <diagram name="Purchase Book" id="WzMiWF-xYGB2tXfnLQXi">
    <mxGraphModel dx="1895" dy="1049" grid="1" gridSize="10" guides="1" tooltips="1" connect="1" arrows="1" fold="1" page="1" pageScale="1" pageWidth="1100" pageHeight="850" background="none" math="0" shadow="0">
      <root>
        <mxCell id="m38-VFW0V2e-dG7Hy79a-0" />
        <mxCell id="m38-VFW0V2e-dG7Hy79a-1" parent="m38-VFW0V2e-dG7Hy79a-0" />
        <mxCell id="m38-VFW0V2e-dG7Hy79a-2" value="" style="rounded=0;whiteSpace=wrap;html=1;fillColor=none;" vertex="1" parent="m38-VFW0V2e-dG7Hy79a-1">
          <mxGeometry width="950" height="990" as="geometry" />
        </mxCell>
        <mxCell id="m38-VFW0V2e-dG7Hy79a-3" value="" style="rounded=0;whiteSpace=wrap;html=1;fillColor=none;strokeColor=#994C00;" vertex="1" parent="m38-VFW0V2e-dG7Hy79a-1">
          <mxGeometry x="180" y="480" width="670" height="250" as="geometry" />
        </mxCell>
        <mxCell id="m38-VFW0V2e-dG7Hy79a-4" value="" style="rounded=0;whiteSpace=wrap;html=1;fillColor=none;strokeColor=#006600;" vertex="1" parent="m38-VFW0V2e-dG7Hy79a-1">
          <mxGeometry x="60" y="270" width="330" height="140" as="geometry" />
        </mxCell>
        <mxCell id="m38-VFW0V2e-dG7Hy79a-5" value="Program" style="shape=umlLifeline;perimeter=lifelinePerimeter;whiteSpace=wrap;html=1;container=1;collapsible=0;recursiveResize=0;outlineConnect=0;rounded=1;shadow=0;comic=0;labelBackgroundColor=none;strokeWidth=1;fontFamily=Verdana;fontSize=12;align=center;" vertex="1" parent="m38-VFW0V2e-dG7Hy79a-1">
          <mxGeometry x="240" y="80" width="100" height="980" as="geometry" />
        </mxCell>
        <mxCell id="m38-VFW0V2e-dG7Hy79a-6" value="" style="html=1;points=[];perimeter=orthogonalPerimeter;rounded=0;shadow=0;comic=0;labelBackgroundColor=none;strokeWidth=1;fontFamily=Verdana;fontSize=12;align=center;" vertex="1" parent="m38-VFW0V2e-dG7Hy79a-5">
          <mxGeometry x="45" y="210" width="10" height="480" as="geometry" />
        </mxCell>
        <mxCell id="m38-VFW0V2e-dG7Hy79a-7" value="[result null]" style="text;html=1;align=center;verticalAlign=middle;resizable=0;points=[];autosize=1;strokeColor=none;fillColor=none;" vertex="1" parent="m38-VFW0V2e-dG7Hy79a-5">
          <mxGeometry x="-50" y="500" width="80" height="30" as="geometry" />
        </mxCell>
        <mxCell id="m38-VFW0V2e-dG7Hy79a-8" value="error msg:&amp;nbsp;&lt;div&gt;Book not found&lt;/div&gt;" style="endArrow=classic;html=1;rounded=0;edgeStyle=orthogonalEdgeStyle;verticalAlign=bottom;exitX=1.128;exitY=0.149;exitDx=0;exitDy=0;exitPerimeter=0;entryX=0.84;entryY=0.344;entryDx=0;entryDy=0;entryPerimeter=0;" edge="1" parent="m38-VFW0V2e-dG7Hy79a-5">
          <mxGeometry x="0.1265" width="50" height="50" relative="1" as="geometry">
            <mxPoint x="58" y="480.5" as="sourcePoint" />
            <mxPoint x="55" y="519.5" as="targetPoint" />
            <Array as="points">
              <mxPoint x="108" y="480.5" />
              <mxPoint x="108" y="519.5" />
            </Array>
            <mxPoint as="offset" />
          </mxGeometry>
        </mxCell>
        <mxCell id="m38-VFW0V2e-dG7Hy79a-10" value="" style="html=1;points=[];perimeter=orthogonalPerimeter;rounded=0;shadow=0;comic=0;labelBackgroundColor=none;strokeWidth=1;fontFamily=Verdana;fontSize=12;align=center;" vertex="1" parent="m38-VFW0V2e-dG7Hy79a-5">
          <mxGeometry x="45" y="80" width="10" height="90" as="geometry" />
        </mxCell>
        <mxCell id="tu9UZn3DwKU4jrDvoVAo-15" value="bookSelector()" style="endArrow=classic;html=1;rounded=0;edgeStyle=orthogonalEdgeStyle;verticalAlign=bottom;exitX=1.128;exitY=0.149;exitDx=0;exitDy=0;exitPerimeter=0;entryX=0.84;entryY=0.344;entryDx=0;entryDy=0;entryPerimeter=0;" edge="1" parent="m38-VFW0V2e-dG7Hy79a-5">
          <mxGeometry x="0.1265" width="50" height="50" relative="1" as="geometry">
            <mxPoint x="58" y="580" as="sourcePoint" />
            <mxPoint x="55" y="619" as="targetPoint" />
            <Array as="points">
              <mxPoint x="108" y="580" />
              <mxPoint x="108" y="619" />
            </Array>
            <mxPoint as="offset" />
          </mxGeometry>
        </mxCell>
        <mxCell id="tu9UZn3DwKU4jrDvoVAo-17" value="" style="html=1;points=[];perimeter=orthogonalPerimeter;rounded=0;shadow=0;comic=0;labelBackgroundColor=none;strokeWidth=1;fontFamily=Verdana;fontSize=12;align=center;" vertex="1" parent="m38-VFW0V2e-dG7Hy79a-5">
          <mxGeometry x="45" y="690" width="10" height="290" as="geometry" />
        </mxCell>
        <mxCell id="m38-VFW0V2e-dG7Hy79a-11" value=":Book" style="shape=umlLifeline;perimeter=lifelinePerimeter;whiteSpace=wrap;html=1;container=1;collapsible=0;recursiveResize=0;outlineConnect=0;rounded=1;shadow=0;comic=0;labelBackgroundColor=none;strokeWidth=1;fontFamily=Verdana;fontSize=12;align=center;" vertex="1" parent="m38-VFW0V2e-dG7Hy79a-1">
          <mxGeometry x="425" y="80" width="100" height="980" as="geometry" />
        </mxCell>
        <mxCell id="m38-VFW0V2e-dG7Hy79a-12" value="" style="html=1;points=[];perimeter=orthogonalPerimeter;rounded=0;shadow=0;comic=0;labelBackgroundColor=none;strokeWidth=1;fontFamily=Verdana;fontSize=12;align=center;" vertex="1" parent="m38-VFW0V2e-dG7Hy79a-11">
          <mxGeometry x="45" y="360" width="10" height="90" as="geometry" />
        </mxCell>
        <mxCell id="m38-VFW0V2e-dG7Hy79a-15" value="Guest" style="shape=umlActor;verticalLabelPosition=bottom;verticalAlign=top;html=1;outlineConnect=0;" vertex="1" parent="m38-VFW0V2e-dG7Hy79a-1">
          <mxGeometry x="60" y="40" width="40" height="80" as="geometry" />
        </mxCell>
        <mxCell id="m38-VFW0V2e-dG7Hy79a-16" value="" style="endArrow=none;dashed=1;html=1;rounded=0;exitX=0.083;exitY=1;exitDx=0;exitDy=0;exitPerimeter=0;" edge="1" parent="m38-VFW0V2e-dG7Hy79a-1" target="m38-VFW0V2e-dG7Hy79a-15" source="m38-VFW0V2e-dG7Hy79a-2">
          <mxGeometry width="50" height="50" relative="1" as="geometry">
            <mxPoint x="80" y="780" as="sourcePoint" />
            <mxPoint x="490" y="270" as="targetPoint" />
          </mxGeometry>
        </mxCell>
        <mxCell id="m38-VFW0V2e-dG7Hy79a-17" value="DB" style="shape=cylinder3;whiteSpace=wrap;html=1;boundedLbl=1;backgroundOutline=1;size=15;" vertex="1" parent="m38-VFW0V2e-dG7Hy79a-1">
          <mxGeometry x="800" y="50" width="60" height="70" as="geometry" />
        </mxCell>
        <mxCell id="m38-VFW0V2e-dG7Hy79a-18" value="" style="endArrow=none;dashed=1;html=1;rounded=0;entryX=0.5;entryY=1;entryDx=0;entryDy=0;entryPerimeter=0;exitX=0.876;exitY=1.002;exitDx=0;exitDy=0;exitPerimeter=0;" edge="1" parent="m38-VFW0V2e-dG7Hy79a-1" source="tu9UZn3DwKU4jrDvoVAo-31" target="m38-VFW0V2e-dG7Hy79a-17">
          <mxGeometry width="50" height="50" relative="1" as="geometry">
            <mxPoint x="620" y="440" as="sourcePoint" />
            <mxPoint x="660" y="290" as="targetPoint" />
          </mxGeometry>
        </mxCell>
        <mxCell id="m38-VFW0V2e-dG7Hy79a-19" value="Input Book Name/Category" style="endArrow=classic;html=1;rounded=0;verticalAlign=bottom;" edge="1" parent="m38-VFW0V2e-dG7Hy79a-1">
          <mxGeometry width="50" height="50" relative="1" as="geometry">
            <mxPoint x="80" y="310" as="sourcePoint" />
            <mxPoint x="289.5" y="310" as="targetPoint" />
          </mxGeometry>
        </mxCell>
        <mxCell id="m38-VFW0V2e-dG7Hy79a-20" value="Loop" style="rounded=0;whiteSpace=wrap;html=1;fillColor=#99FF99;strokeColor=#006600;" vertex="1" parent="m38-VFW0V2e-dG7Hy79a-1">
          <mxGeometry x="60" y="390" width="60" height="20" as="geometry" />
        </mxCell>
        <mxCell id="m38-VFW0V2e-dG7Hy79a-21" value="[Invalid Input]" style="text;html=1;align=center;verticalAlign=middle;resizable=0;points=[];autosize=1;strokeColor=none;fillColor=none;" vertex="1" parent="m38-VFW0V2e-dG7Hy79a-1">
          <mxGeometry x="140" y="350" width="90" height="30" as="geometry" />
        </mxCell>
        <mxCell id="m38-VFW0V2e-dG7Hy79a-22" value="Alt" style="rounded=0;whiteSpace=wrap;html=1;fillColor=#FF8000;strokeColor=none;" vertex="1" parent="m38-VFW0V2e-dG7Hy79a-1">
          <mxGeometry x="180" y="480" width="60" height="20" as="geometry" />
        </mxCell>
        <mxCell id="m38-VFW0V2e-dG7Hy79a-23" value="error msg:&amp;nbsp;&lt;div&gt;Invalid Input&lt;/div&gt;" style="endArrow=classic;html=1;rounded=0;edgeStyle=orthogonalEdgeStyle;verticalAlign=bottom;exitX=1.128;exitY=0.149;exitDx=0;exitDy=0;exitPerimeter=0;entryX=0.84;entryY=0.344;entryDx=0;entryDy=0;entryPerimeter=0;" edge="1" parent="m38-VFW0V2e-dG7Hy79a-1">
          <mxGeometry x="0.1265" width="50" height="50" relative="1" as="geometry">
            <mxPoint x="293" y="320" as="sourcePoint" />
            <mxPoint x="290" y="359" as="targetPoint" />
            <Array as="points">
              <mxPoint x="343" y="320" />
              <mxPoint x="343" y="359" />
            </Array>
            <mxPoint as="offset" />
          </mxGeometry>
        </mxCell>
        <mxCell id="m38-VFW0V2e-dG7Hy79a-24" value="" style="endArrow=classic;html=1;rounded=0;verticalAlign=bottom;entryX=-0.24;entryY=0.115;entryDx=0;entryDy=0;entryPerimeter=0;" edge="1" parent="m38-VFW0V2e-dG7Hy79a-1" target="m38-VFW0V2e-dG7Hy79a-12">
          <mxGeometry width="50" height="50" relative="1" as="geometry">
            <mxPoint x="288.97" y="450" as="sourcePoint" />
            <mxPoint x="445" y="450" as="targetPoint" />
          </mxGeometry>
        </mxCell>
        <mxCell id="m38-VFW0V2e-dG7Hy79a-26" value="" style="html=1;points=[];perimeter=orthogonalPerimeter;rounded=0;shadow=0;comic=0;labelBackgroundColor=none;strokeWidth=1;fontFamily=Verdana;fontSize=12;align=center;" vertex="1" parent="m38-VFW0V2e-dG7Hy79a-1">
          <mxGeometry x="825" y="450" width="10" height="50" as="geometry" />
        </mxCell>
        <mxCell id="m38-VFW0V2e-dG7Hy79a-28" value="" style="endArrow=none;dashed=1;html=1;rounded=0;exitX=0.003;exitY=0.541;exitDx=0;exitDy=0;exitPerimeter=0;entryX=0.997;entryY=0.533;entryDx=0;entryDy=0;entryPerimeter=0;fontColor=#994C00;strokeColor=#994C00;" edge="1" parent="m38-VFW0V2e-dG7Hy79a-1" source="m38-VFW0V2e-dG7Hy79a-3" target="m38-VFW0V2e-dG7Hy79a-3">
          <mxGeometry width="50" height="50" relative="1" as="geometry">
            <mxPoint x="320" y="600" as="sourcePoint" />
            <mxPoint x="370" y="550" as="targetPoint" />
          </mxGeometry>
        </mxCell>
        <mxCell id="m38-VFW0V2e-dG7Hy79a-29" value="[result not null]" style="text;html=1;align=center;verticalAlign=middle;resizable=0;points=[];autosize=1;strokeColor=none;fillColor=none;" vertex="1" parent="m38-VFW0V2e-dG7Hy79a-1">
          <mxGeometry x="180" y="660" width="100" height="30" as="geometry" />
        </mxCell>
        <mxCell id="m38-VFW0V2e-dG7Hy79a-31" value="Sd06 - Purchase Book" style="rounded=1;whiteSpace=wrap;html=1;" vertex="1" parent="m38-VFW0V2e-dG7Hy79a-1">
          <mxGeometry width="140" height="30" as="geometry" />
        </mxCell>
        <mxCell id="m38-VFW0V2e-dG7Hy79a-32" value="" style="rounded=0;whiteSpace=wrap;html=1;fillColor=none;strokeColor=#CC0000;" vertex="1" parent="m38-VFW0V2e-dG7Hy79a-1">
          <mxGeometry x="50" y="170" width="280" height="60" as="geometry" />
        </mxCell>
        <mxCell id="m38-VFW0V2e-dG7Hy79a-33" value="ref" style="rounded=0;whiteSpace=wrap;html=1;fillColor=#FF3333;strokeColor=none;" vertex="1" parent="m38-VFW0V2e-dG7Hy79a-1">
          <mxGeometry x="50" y="170" width="50" height="20" as="geometry" />
        </mxCell>
        <mxCell id="m38-VFW0V2e-dG7Hy79a-34" value="[Sd01 - Log In]" style="text;html=1;align=center;verticalAlign=middle;resizable=0;points=[];autosize=1;strokeColor=none;fillColor=none;" vertex="1" parent="m38-VFW0V2e-dG7Hy79a-1">
          <mxGeometry x="130" y="185" width="100" height="30" as="geometry" />
        </mxCell>
        <mxCell id="tu9UZn3DwKU4jrDvoVAo-0" value=":Order" style="shape=umlLifeline;perimeter=lifelinePerimeter;whiteSpace=wrap;html=1;container=1;collapsible=0;recursiveResize=0;outlineConnect=0;rounded=1;shadow=0;comic=0;labelBackgroundColor=none;strokeWidth=1;fontFamily=Verdana;fontSize=12;align=center;" vertex="1" parent="m38-VFW0V2e-dG7Hy79a-1">
          <mxGeometry x="600" y="80" width="100" height="980" as="geometry" />
        </mxCell>
        <mxCell id="tu9UZn3DwKU4jrDvoVAo-29" value="" style="html=1;points=[];perimeter=orthogonalPerimeter;rounded=0;shadow=0;comic=0;labelBackgroundColor=none;strokeWidth=1;fontFamily=Verdana;fontSize=12;align=center;" vertex="1" parent="tu9UZn3DwKU4jrDvoVAo-0">
          <mxGeometry x="45" y="830" width="10" height="50" as="geometry" />
        </mxCell>
        <mxCell id="tu9UZn3DwKU4jrDvoVAo-8" value="SearchByName()/SearchByCategory()" style="endArrow=classic;html=1;rounded=0;verticalAlign=bottom;exitX=1.04;exitY=0.225;exitDx=0;exitDy=0;exitPerimeter=0;" edge="1" parent="m38-VFW0V2e-dG7Hy79a-1" source="m38-VFW0V2e-dG7Hy79a-12">
          <mxGeometry width="50" height="50" relative="1" as="geometry">
            <mxPoint x="483" y="452" as="sourcePoint" />
            <mxPoint x="820" y="460" as="targetPoint" />
          </mxGeometry>
        </mxCell>
        <mxCell id="tu9UZn3DwKU4jrDvoVAo-9" value="" style="endArrow=classic;html=1;rounded=0;exitX=0.02;exitY=0.832;exitDx=0;exitDy=0;exitPerimeter=0;entryX=1.28;entryY=0.585;entryDx=0;entryDy=0;entryPerimeter=0;" edge="1" parent="m38-VFW0V2e-dG7Hy79a-1" source="m38-VFW0V2e-dG7Hy79a-26" target="m38-VFW0V2e-dG7Hy79a-12">
          <mxGeometry width="50" height="50" relative="1" as="geometry">
            <mxPoint x="440" y="510" as="sourcePoint" />
            <mxPoint x="490" y="460" as="targetPoint" />
          </mxGeometry>
        </mxCell>
        <mxCell id="tu9UZn3DwKU4jrDvoVAo-24" value="" style="rounded=0;whiteSpace=wrap;html=1;fillColor=none;strokeColor=#006600;" vertex="1" parent="m38-VFW0V2e-dG7Hy79a-1">
          <mxGeometry x="60" y="760" width="330" height="140" as="geometry" />
        </mxCell>
        <mxCell id="tu9UZn3DwKU4jrDvoVAo-25" value="Input quantity" style="endArrow=classic;html=1;rounded=0;verticalAlign=bottom;" edge="1" parent="m38-VFW0V2e-dG7Hy79a-1">
          <mxGeometry width="50" height="50" relative="1" as="geometry">
            <mxPoint x="80" y="800" as="sourcePoint" />
            <mxPoint x="289.5" y="800" as="targetPoint" />
          </mxGeometry>
        </mxCell>
        <mxCell id="tu9UZn3DwKU4jrDvoVAo-26" value="Loop" style="rounded=0;whiteSpace=wrap;html=1;fillColor=#99FF99;strokeColor=#006600;" vertex="1" parent="m38-VFW0V2e-dG7Hy79a-1">
          <mxGeometry x="60" y="880" width="60" height="20" as="geometry" />
        </mxCell>
        <mxCell id="tu9UZn3DwKU4jrDvoVAo-27" value="[Invalid Input]" style="text;html=1;align=center;verticalAlign=middle;resizable=0;points=[];autosize=1;strokeColor=none;fillColor=none;" vertex="1" parent="m38-VFW0V2e-dG7Hy79a-1">
          <mxGeometry x="140" y="840" width="90" height="30" as="geometry" />
        </mxCell>
        <mxCell id="tu9UZn3DwKU4jrDvoVAo-28" value="error msg:&amp;nbsp;&lt;div&gt;Invalid Input&lt;/div&gt;" style="endArrow=classic;html=1;rounded=0;edgeStyle=orthogonalEdgeStyle;verticalAlign=bottom;exitX=1.128;exitY=0.149;exitDx=0;exitDy=0;exitPerimeter=0;entryX=0.84;entryY=0.344;entryDx=0;entryDy=0;entryPerimeter=0;" edge="1" parent="m38-VFW0V2e-dG7Hy79a-1">
          <mxGeometry x="0.1265" width="50" height="50" relative="1" as="geometry">
            <mxPoint x="293" y="810" as="sourcePoint" />
            <mxPoint x="290" y="849" as="targetPoint" />
            <Array as="points">
              <mxPoint x="343" y="810" />
              <mxPoint x="343" y="849" />
            </Array>
            <mxPoint as="offset" />
          </mxGeometry>
        </mxCell>
        <mxCell id="tu9UZn3DwKU4jrDvoVAo-30" value="new Order()" style="endArrow=classic;html=1;rounded=0;entryX=0.12;entryY=0.228;entryDx=0;entryDy=0;entryPerimeter=0;verticalAlign=bottom;" edge="1" parent="m38-VFW0V2e-dG7Hy79a-1" source="m38-VFW0V2e-dG7Hy79a-5" target="tu9UZn3DwKU4jrDvoVAo-29">
          <mxGeometry width="50" height="50" relative="1" as="geometry">
            <mxPoint x="370" y="830" as="sourcePoint" />
            <mxPoint x="420" y="780" as="targetPoint" />
          </mxGeometry>
        </mxCell>
        <mxCell id="tu9UZn3DwKU4jrDvoVAo-32" value="" style="endArrow=none;dashed=1;html=1;rounded=0;entryX=0.5;entryY=1;entryDx=0;entryDy=0;entryPerimeter=0;exitX=0.876;exitY=1.002;exitDx=0;exitDy=0;exitPerimeter=0;" edge="1" parent="m38-VFW0V2e-dG7Hy79a-1" source="m38-VFW0V2e-dG7Hy79a-2" target="tu9UZn3DwKU4jrDvoVAo-31">
          <mxGeometry width="50" height="50" relative="1" as="geometry">
            <mxPoint x="832" y="1062" as="sourcePoint" />
            <mxPoint x="830" y="120" as="targetPoint" />
          </mxGeometry>
        </mxCell>
        <mxCell id="tu9UZn3DwKU4jrDvoVAo-31" value="" style="html=1;points=[];perimeter=orthogonalPerimeter;rounded=0;shadow=0;comic=0;labelBackgroundColor=none;strokeWidth=1;fontFamily=Verdana;fontSize=12;align=center;" vertex="1" parent="m38-VFW0V2e-dG7Hy79a-1">
          <mxGeometry x="825" y="920" width="10" height="30" as="geometry" />
        </mxCell>
        <mxCell id="tu9UZn3DwKU4jrDvoVAo-33" value="Transaction()" style="endArrow=classic;html=1;rounded=0;entryX=0.069;entryY=0.272;entryDx=0;entryDy=0;entryPerimeter=0;exitX=1.293;exitY=0.356;exitDx=0;exitDy=0;exitPerimeter=0;verticalAlign=bottom;" edge="1" parent="m38-VFW0V2e-dG7Hy79a-1" source="tu9UZn3DwKU4jrDvoVAo-29" target="tu9UZn3DwKU4jrDvoVAo-31">
          <mxGeometry width="50" height="50" relative="1" as="geometry">
            <mxPoint x="700" y="940" as="sourcePoint" />
            <mxPoint x="750" y="890" as="targetPoint" />
          </mxGeometry>
        </mxCell>
      </root>
    </mxGraphModel>
  </diagram>
</mxfile>
